M48
; DRILL file {KiCad (5.1.8)-1} date 10/08/21 14:09:20
; FORMAT={-:-/ absolute / inch / decimal}
; #@! TF.CreationDate,2021-10-08T14:09:20-07:00
; #@! TF.GenerationSoftware,Kicad,Pcbnew,(5.1.8)-1
; #@! TF.FileFunction,Plated,1,2,PTH
FMAT,2
INCH
T1C0.0315
T2C0.0354
T3C0.0591
T4C0.0650
%
G90
G05
T1
X6.93Y-4.54
X6.9857Y-4.1439
X5.9524Y-2.9199
X6.015Y-3.315
X6.4Y-2.7
X6.06Y-2.33
X6.2478Y-1.9768
X6.17Y-4.145
X6.2257Y-4.5411
X6.8Y-2.7
X6.39Y-3.91
X6.79Y-3.91
T2
X6.965Y-2.12
X7.0007Y-2.1902
X7.0365Y-2.2603
X6.52Y-4.53
X6.62Y-4.53
X6.52Y-1.94
X6.62Y-1.94
X6.1326Y-3.8515
X6.15Y-3.95
X6.9976Y-3.9585
X7.015Y-3.86
X5.935Y-2.67
X5.935Y-2.77
X7.215Y-2.67
X7.215Y-2.77
T3
X6.9275Y-2.0463
X7.074Y-2.334
T4
X6.6Y-2.895
X6.6Y-3.725
T0
M30
