%TF.GenerationSoftware,KiCad,Pcbnew,(5.1.8)-1*%
%TF.CreationDate,2021-10-08T14:09:10-07:00*%
%TF.ProjectId,Halloween,48616c6c-6f77-4656-956e-2e6b69636164,rev?*%
%TF.SameCoordinates,Original*%
%TF.FileFunction,Legend,Bot*%
%TF.FilePolarity,Positive*%
%FSLAX46Y46*%
G04 Gerber Fmt 4.6, Leading zero omitted, Abs format (unit mm)*
G04 Created by KiCad (PCBNEW (5.1.8)-1) date 2021-10-08 14:09:10*
%MOMM*%
%LPD*%
G01*
G04 APERTURE LIST*
%ADD10C,0.150000*%
%ADD11C,0.120000*%
%ADD12C,0.010000*%
%ADD13C,0.254000*%
G04 APERTURE END LIST*
D10*
X173331190Y-56293333D02*
X173283571Y-56245714D01*
X173235952Y-56150476D01*
X173235952Y-56055238D01*
X173283571Y-55960000D01*
X173331190Y-55912380D01*
X173426428Y-55864761D01*
X173521666Y-55864761D01*
X173616904Y-55912380D01*
X173664523Y-55960000D01*
X173712142Y-56055238D01*
X173712142Y-56150476D01*
X173664523Y-56245714D01*
X173616904Y-56293333D01*
X173235952Y-56293333D02*
X173616904Y-56293333D01*
X173664523Y-56340952D01*
X173664523Y-56388571D01*
X173616904Y-56483809D01*
X173521666Y-56531428D01*
X173283571Y-56531428D01*
X173140714Y-56436190D01*
X173045476Y-56293333D01*
X172997857Y-56102857D01*
X173045476Y-55912380D01*
X173140714Y-55769523D01*
X173283571Y-55674285D01*
X173474047Y-55626666D01*
X173664523Y-55674285D01*
X173807380Y-55769523D01*
X173902619Y-55912380D01*
X173950238Y-56102857D01*
X173902619Y-56293333D01*
X173807380Y-56436190D01*
X173807380Y-57388571D02*
X173283571Y-57388571D01*
X173188333Y-57340952D01*
X173140714Y-57245714D01*
X173140714Y-57055238D01*
X173188333Y-56960000D01*
X173759761Y-57388571D02*
X173807380Y-57293333D01*
X173807380Y-57055238D01*
X173759761Y-56960000D01*
X173664523Y-56912380D01*
X173569285Y-56912380D01*
X173474047Y-56960000D01*
X173426428Y-57055238D01*
X173426428Y-57293333D01*
X173378809Y-57388571D01*
X173807380Y-58007619D02*
X173759761Y-57912380D01*
X173664523Y-57864761D01*
X172807380Y-57864761D01*
X173140714Y-58388571D02*
X174140714Y-58388571D01*
X173188333Y-58388571D02*
X173140714Y-58483809D01*
X173140714Y-58674285D01*
X173188333Y-58769523D01*
X173235952Y-58817142D01*
X173331190Y-58864761D01*
X173616904Y-58864761D01*
X173712142Y-58817142D01*
X173759761Y-58769523D01*
X173807380Y-58674285D01*
X173807380Y-58483809D01*
X173759761Y-58388571D01*
X173759761Y-59674285D02*
X173807380Y-59579047D01*
X173807380Y-59388571D01*
X173759761Y-59293333D01*
X173664523Y-59245714D01*
X173283571Y-59245714D01*
X173188333Y-59293333D01*
X173140714Y-59388571D01*
X173140714Y-59579047D01*
X173188333Y-59674285D01*
X173283571Y-59721904D01*
X173378809Y-59721904D01*
X173474047Y-59245714D01*
X173140714Y-60150476D02*
X173807380Y-60150476D01*
X173235952Y-60150476D02*
X173188333Y-60198095D01*
X173140714Y-60293333D01*
X173140714Y-60436190D01*
X173188333Y-60531428D01*
X173283571Y-60579047D01*
X173807380Y-60579047D01*
X173140714Y-61483809D02*
X173950238Y-61483809D01*
X174045476Y-61436190D01*
X174093095Y-61388571D01*
X174140714Y-61293333D01*
X174140714Y-61150476D01*
X174093095Y-61055238D01*
X173759761Y-61483809D02*
X173807380Y-61388571D01*
X173807380Y-61198095D01*
X173759761Y-61102857D01*
X173712142Y-61055238D01*
X173616904Y-61007619D01*
X173331190Y-61007619D01*
X173235952Y-61055238D01*
X173188333Y-61102857D01*
X173140714Y-61198095D01*
X173140714Y-61388571D01*
X173188333Y-61483809D01*
X173807380Y-62102857D02*
X173759761Y-62007619D01*
X173664523Y-61960000D01*
X172807380Y-61960000D01*
X173807380Y-62626666D02*
X173759761Y-62531428D01*
X173712142Y-62483809D01*
X173616904Y-62436190D01*
X173331190Y-62436190D01*
X173235952Y-62483809D01*
X173188333Y-62531428D01*
X173140714Y-62626666D01*
X173140714Y-62769523D01*
X173188333Y-62864761D01*
X173235952Y-62912380D01*
X173331190Y-62960000D01*
X173616904Y-62960000D01*
X173712142Y-62912380D01*
X173759761Y-62864761D01*
X173807380Y-62769523D01*
X173807380Y-62626666D01*
X173140714Y-63293333D02*
X173807380Y-63483809D01*
X173331190Y-63674285D01*
X173807380Y-63864761D01*
X173140714Y-64055238D01*
X173807380Y-64436190D02*
X173140714Y-64436190D01*
X172807380Y-64436190D02*
X172855000Y-64388571D01*
X172902619Y-64436190D01*
X172855000Y-64483809D01*
X172807380Y-64436190D01*
X172902619Y-64436190D01*
X173140714Y-64912380D02*
X173807380Y-64912380D01*
X173235952Y-64912380D02*
X173188333Y-64960000D01*
X173140714Y-65055238D01*
X173140714Y-65198095D01*
X173188333Y-65293333D01*
X173283571Y-65340952D01*
X173807380Y-65340952D01*
X173807380Y-66245714D02*
X172807380Y-66245714D01*
X173759761Y-66245714D02*
X173807380Y-66150476D01*
X173807380Y-65960000D01*
X173759761Y-65864761D01*
X173712142Y-65817142D01*
X173616904Y-65769523D01*
X173331190Y-65769523D01*
X173235952Y-65817142D01*
X173188333Y-65864761D01*
X173140714Y-65960000D01*
X173140714Y-66150476D01*
X173188333Y-66245714D01*
X168362142Y-106117380D02*
X168838333Y-106117380D01*
X168838333Y-105117380D01*
X168028809Y-105593571D02*
X167695476Y-105593571D01*
X167552619Y-106117380D02*
X168028809Y-106117380D01*
X168028809Y-105117380D01*
X167552619Y-105117380D01*
X167124047Y-106117380D02*
X167124047Y-105117380D01*
X166885952Y-105117380D01*
X166743095Y-105165000D01*
X166647857Y-105260238D01*
X166600238Y-105355476D01*
X166552619Y-105545952D01*
X166552619Y-105688809D01*
X166600238Y-105879285D01*
X166647857Y-105974523D01*
X166743095Y-106069761D01*
X166885952Y-106117380D01*
X167124047Y-106117380D01*
X166171666Y-106069761D02*
X166028809Y-106117380D01*
X165790714Y-106117380D01*
X165695476Y-106069761D01*
X165647857Y-106022142D01*
X165600238Y-105926904D01*
X165600238Y-105831666D01*
X165647857Y-105736428D01*
X165695476Y-105688809D01*
X165790714Y-105641190D01*
X165981190Y-105593571D01*
X166076428Y-105545952D01*
X166124047Y-105498333D01*
X166171666Y-105403095D01*
X166171666Y-105307857D01*
X166124047Y-105212619D01*
X166076428Y-105165000D01*
X165981190Y-105117380D01*
X165743095Y-105117380D01*
X165600238Y-105165000D01*
X165171666Y-106022142D02*
X165124047Y-106069761D01*
X165171666Y-106117380D01*
X165219285Y-106069761D01*
X165171666Y-106022142D01*
X165171666Y-106117380D01*
X165171666Y-105498333D02*
X165124047Y-105545952D01*
X165171666Y-105593571D01*
X165219285Y-105545952D01*
X165171666Y-105498333D01*
X165171666Y-105593571D01*
X170719285Y-107386428D02*
X169957380Y-107386428D01*
X170338333Y-107767380D02*
X170338333Y-107005476D01*
X168719285Y-107243571D02*
X167957380Y-107243571D01*
X167957380Y-107529285D02*
X168719285Y-107529285D01*
X166243095Y-107767380D02*
X166719285Y-107767380D01*
X166719285Y-106767380D01*
X165719285Y-106767380D02*
X165528809Y-106767380D01*
X165433571Y-106815000D01*
X165338333Y-106910238D01*
X165290714Y-107100714D01*
X165290714Y-107434047D01*
X165338333Y-107624523D01*
X165433571Y-107719761D01*
X165528809Y-107767380D01*
X165719285Y-107767380D01*
X165814523Y-107719761D01*
X165909761Y-107624523D01*
X165957380Y-107434047D01*
X165957380Y-107100714D01*
X165909761Y-106910238D01*
X165814523Y-106815000D01*
X165719285Y-106767380D01*
X164862142Y-107767380D02*
X164862142Y-106767380D01*
X164290714Y-107767380D01*
X164290714Y-106767380D01*
X163290714Y-106815000D02*
X163385952Y-106767380D01*
X163528809Y-106767380D01*
X163671666Y-106815000D01*
X163766904Y-106910238D01*
X163814523Y-107005476D01*
X163862142Y-107195952D01*
X163862142Y-107338809D01*
X163814523Y-107529285D01*
X163766904Y-107624523D01*
X163671666Y-107719761D01*
X163528809Y-107767380D01*
X163433571Y-107767380D01*
X163290714Y-107719761D01*
X163243095Y-107672142D01*
X163243095Y-107338809D01*
X163433571Y-107338809D01*
X171171666Y-109036428D02*
X170409761Y-109036428D01*
X169171666Y-108893571D02*
X168409761Y-108893571D01*
X168409761Y-109179285D02*
X169171666Y-109179285D01*
X167219285Y-109369761D02*
X167076428Y-109417380D01*
X166838333Y-109417380D01*
X166743095Y-109369761D01*
X166695476Y-109322142D01*
X166647857Y-109226904D01*
X166647857Y-109131666D01*
X166695476Y-109036428D01*
X166743095Y-108988809D01*
X166838333Y-108941190D01*
X167028809Y-108893571D01*
X167124047Y-108845952D01*
X167171666Y-108798333D01*
X167219285Y-108703095D01*
X167219285Y-108607857D01*
X167171666Y-108512619D01*
X167124047Y-108465000D01*
X167028809Y-108417380D01*
X166790714Y-108417380D01*
X166647857Y-108465000D01*
X166219285Y-109417380D02*
X166219285Y-108417380D01*
X166219285Y-108893571D02*
X165647857Y-108893571D01*
X165647857Y-109417380D02*
X165647857Y-108417380D01*
X164981190Y-108417380D02*
X164790714Y-108417380D01*
X164695476Y-108465000D01*
X164600238Y-108560238D01*
X164552619Y-108750714D01*
X164552619Y-109084047D01*
X164600238Y-109274523D01*
X164695476Y-109369761D01*
X164790714Y-109417380D01*
X164981190Y-109417380D01*
X165076428Y-109369761D01*
X165171666Y-109274523D01*
X165219285Y-109084047D01*
X165219285Y-108750714D01*
X165171666Y-108560238D01*
X165076428Y-108465000D01*
X164981190Y-108417380D01*
X163552619Y-109417380D02*
X163885952Y-108941190D01*
X164124047Y-109417380D02*
X164124047Y-108417380D01*
X163743095Y-108417380D01*
X163647857Y-108465000D01*
X163600238Y-108512619D01*
X163552619Y-108607857D01*
X163552619Y-108750714D01*
X163600238Y-108845952D01*
X163647857Y-108893571D01*
X163743095Y-108941190D01*
X164124047Y-108941190D01*
X163266904Y-108417380D02*
X162695476Y-108417380D01*
X162981190Y-109417380D02*
X162981190Y-108417380D01*
X182066613Y-61345067D02*
X181893983Y-61425566D01*
X181827793Y-61508973D01*
X181781727Y-61635537D01*
X181819068Y-61828292D01*
X181959941Y-62130395D01*
X182083597Y-62282900D01*
X182210162Y-62328966D01*
X182316602Y-62331874D01*
X182489232Y-62251375D01*
X182555422Y-62167968D01*
X182601488Y-62041404D01*
X182564146Y-61848649D01*
X182423274Y-61546546D01*
X182299617Y-61394041D01*
X182173053Y-61347975D01*
X182066613Y-61345067D01*
X181712396Y-62613619D02*
X181289778Y-61707311D01*
X181194506Y-62855115D01*
X180771888Y-61948808D01*
X175383716Y-48758195D02*
X175211086Y-48838693D01*
X175144896Y-48922100D01*
X175098830Y-49048664D01*
X175136171Y-49241419D01*
X175277044Y-49543522D01*
X175400700Y-49696027D01*
X175527264Y-49742093D01*
X175633704Y-49745001D01*
X175806334Y-49664502D01*
X175872525Y-49581095D01*
X175918590Y-49454531D01*
X175881249Y-49261776D01*
X175740376Y-48959674D01*
X175616720Y-48807168D01*
X175490156Y-48761103D01*
X175383716Y-48758195D01*
X174506025Y-49692887D02*
X174808128Y-49552014D01*
X175029499Y-50026747D02*
X174606881Y-49120439D01*
X174175306Y-49321686D01*
X173729190Y-50055131D02*
X174031292Y-49914258D01*
X174252664Y-50388991D02*
X173830045Y-49482683D01*
X173398470Y-49683930D01*
X163649428Y-114681047D02*
X163649428Y-115442952D01*
X164030380Y-115062000D02*
X163268476Y-115062000D01*
X170249428Y-114681047D02*
X170249428Y-115442952D01*
X156084797Y-102435416D02*
X156837322Y-102316228D01*
X156401466Y-101999560D02*
X156520654Y-102752085D01*
X155052329Y-95916672D02*
X155804854Y-95797484D01*
X177191006Y-102664564D02*
X177938912Y-102809942D01*
X177637648Y-102363300D02*
X177492270Y-103111206D01*
X178450346Y-96185824D02*
X179198252Y-96331202D01*
X163649428Y-49022047D02*
X163649428Y-49783952D01*
X164030380Y-49403000D02*
X163268476Y-49403000D01*
X170249428Y-49022047D02*
X170249428Y-49783952D01*
X150495047Y-72570571D02*
X151256952Y-72570571D01*
X150876000Y-72189619D02*
X150876000Y-72951523D01*
X150495047Y-65970571D02*
X151256952Y-65970571D01*
X182880047Y-72443571D02*
X183641952Y-72443571D01*
X183261000Y-72062619D02*
X183261000Y-72824523D01*
X182880047Y-65843571D02*
X183641952Y-65843571D01*
X159361666Y-56999761D02*
X159361666Y-57475952D01*
X159647380Y-56904523D02*
X158647380Y-57237857D01*
X159647380Y-57571190D01*
X159647380Y-58380714D02*
X159647380Y-57904523D01*
X158647380Y-57904523D01*
X159647380Y-58714047D02*
X158647380Y-58714047D01*
X158647380Y-59095000D01*
X158695000Y-59190238D01*
X158742619Y-59237857D01*
X158837857Y-59285476D01*
X158980714Y-59285476D01*
X159075952Y-59237857D01*
X159123571Y-59190238D01*
X159171190Y-59095000D01*
X159171190Y-58714047D01*
X159123571Y-59714047D02*
X159123571Y-60047380D01*
X159647380Y-60190238D02*
X159647380Y-59714047D01*
X158647380Y-59714047D01*
X158647380Y-60190238D01*
X159647380Y-60618809D02*
X158647380Y-60618809D01*
X159647380Y-61190238D01*
X158647380Y-61190238D01*
X158695000Y-62190238D02*
X158647380Y-62095000D01*
X158647380Y-61952142D01*
X158695000Y-61809285D01*
X158790238Y-61714047D01*
X158885476Y-61666428D01*
X159075952Y-61618809D01*
X159218809Y-61618809D01*
X159409285Y-61666428D01*
X159504523Y-61714047D01*
X159599761Y-61809285D01*
X159647380Y-61952142D01*
X159647380Y-62047380D01*
X159599761Y-62190238D01*
X159552142Y-62237857D01*
X159218809Y-62237857D01*
X159218809Y-62047380D01*
X159647380Y-62666428D02*
X158647380Y-62666428D01*
X159123571Y-62666428D02*
X159123571Y-63237857D01*
X159647380Y-63237857D02*
X158647380Y-63237857D01*
X158647380Y-63904523D02*
X158647380Y-64095000D01*
X158695000Y-64190238D01*
X158790238Y-64285476D01*
X158980714Y-64333095D01*
X159314047Y-64333095D01*
X159504523Y-64285476D01*
X159599761Y-64190238D01*
X159647380Y-64095000D01*
X159647380Y-63904523D01*
X159599761Y-63809285D01*
X159504523Y-63714047D01*
X159314047Y-63666428D01*
X158980714Y-63666428D01*
X158790238Y-63714047D01*
X158695000Y-63809285D01*
X158647380Y-63904523D01*
X158647380Y-64761666D02*
X159456904Y-64761666D01*
X159552142Y-64809285D01*
X159599761Y-64856904D01*
X159647380Y-64952142D01*
X159647380Y-65142619D01*
X159599761Y-65237857D01*
X159552142Y-65285476D01*
X159456904Y-65333095D01*
X158647380Y-65333095D01*
X159647380Y-66285476D02*
X159647380Y-65809285D01*
X158647380Y-65809285D01*
X161297380Y-57523571D02*
X160297380Y-57523571D01*
X161297380Y-57999761D02*
X160297380Y-57999761D01*
X161297380Y-58571190D01*
X160297380Y-58571190D01*
X161297380Y-59047380D02*
X160297380Y-59047380D01*
X160297380Y-59285476D01*
X160345000Y-59428333D01*
X160440238Y-59523571D01*
X160535476Y-59571190D01*
X160725952Y-59618809D01*
X160868809Y-59618809D01*
X161059285Y-59571190D01*
X161154523Y-59523571D01*
X161249761Y-59428333D01*
X161297380Y-59285476D01*
X161297380Y-59047380D01*
X160297380Y-60047380D02*
X161106904Y-60047380D01*
X161202142Y-60095000D01*
X161249761Y-60142619D01*
X161297380Y-60237857D01*
X161297380Y-60428333D01*
X161249761Y-60523571D01*
X161202142Y-60571190D01*
X161106904Y-60618809D01*
X160297380Y-60618809D01*
X161249761Y-61047380D02*
X161297380Y-61190238D01*
X161297380Y-61428333D01*
X161249761Y-61523571D01*
X161202142Y-61571190D01*
X161106904Y-61618809D01*
X161011666Y-61618809D01*
X160916428Y-61571190D01*
X160868809Y-61523571D01*
X160821190Y-61428333D01*
X160773571Y-61237857D01*
X160725952Y-61142619D01*
X160678333Y-61095000D01*
X160583095Y-61047380D01*
X160487857Y-61047380D01*
X160392619Y-61095000D01*
X160345000Y-61142619D01*
X160297380Y-61237857D01*
X160297380Y-61475952D01*
X160345000Y-61618809D01*
X160297380Y-61904523D02*
X160297380Y-62475952D01*
X161297380Y-62190238D02*
X160297380Y-62190238D01*
X161297380Y-63380714D02*
X160821190Y-63047380D01*
X161297380Y-62809285D02*
X160297380Y-62809285D01*
X160297380Y-63190238D01*
X160345000Y-63285476D01*
X160392619Y-63333095D01*
X160487857Y-63380714D01*
X160630714Y-63380714D01*
X160725952Y-63333095D01*
X160773571Y-63285476D01*
X160821190Y-63190238D01*
X160821190Y-62809285D01*
X161297380Y-63809285D02*
X160297380Y-63809285D01*
X160773571Y-64285476D02*
X160773571Y-64618809D01*
X161297380Y-64761666D02*
X161297380Y-64285476D01*
X160297380Y-64285476D01*
X160297380Y-64761666D01*
X161249761Y-65142619D02*
X161297380Y-65285476D01*
X161297380Y-65523571D01*
X161249761Y-65618809D01*
X161202142Y-65666428D01*
X161106904Y-65714047D01*
X161011666Y-65714047D01*
X160916428Y-65666428D01*
X160868809Y-65618809D01*
X160821190Y-65523571D01*
X160773571Y-65333095D01*
X160725952Y-65237857D01*
X160678333Y-65190238D01*
X160583095Y-65142619D01*
X160487857Y-65142619D01*
X160392619Y-65190238D01*
X160345000Y-65237857D01*
X160297380Y-65333095D01*
X160297380Y-65571190D01*
X160345000Y-65714047D01*
D11*
%TO.C,R6*%
X164370000Y-69950000D02*
X164370000Y-67210000D01*
X164370000Y-67210000D02*
X170910000Y-67210000D01*
X170910000Y-67210000D02*
X170910000Y-69950000D01*
X170910000Y-69950000D02*
X164370000Y-69950000D01*
X163600000Y-68580000D02*
X164370000Y-68580000D01*
X171680000Y-68580000D02*
X170910000Y-68580000D01*
D12*
%TO.C,G\u002A\u002A\u002A*%
G36*
X169482472Y-56854339D02*
G01*
X169482465Y-56856312D01*
X169508661Y-56887412D01*
X169581153Y-56947467D01*
X169692611Y-57031424D01*
X169835709Y-57134229D01*
X170003116Y-57250827D01*
X170187505Y-57376165D01*
X170381546Y-57505189D01*
X170577912Y-57632844D01*
X170769273Y-57754077D01*
X170909222Y-57840247D01*
X171151428Y-57989308D01*
X171344963Y-58114209D01*
X171497067Y-58220896D01*
X171614977Y-58315316D01*
X171705933Y-58403414D01*
X171777173Y-58491137D01*
X171835935Y-58584432D01*
X171852673Y-58615269D01*
X171942125Y-58785125D01*
X171940162Y-61055250D01*
X171939521Y-61431454D01*
X171938297Y-61790659D01*
X171936548Y-62127570D01*
X171934328Y-62436890D01*
X171931694Y-62713326D01*
X171928703Y-62951581D01*
X171925411Y-63146360D01*
X171921872Y-63292369D01*
X171918145Y-63384310D01*
X171915137Y-63415108D01*
X171892076Y-63504841D01*
X171774226Y-63435389D01*
X171641382Y-63349388D01*
X171474748Y-63229739D01*
X171286777Y-63086309D01*
X171089924Y-62928968D01*
X170896641Y-62767584D01*
X170719381Y-62612026D01*
X170624500Y-62524269D01*
X170479447Y-62389632D01*
X170368875Y-62294822D01*
X170283950Y-62233234D01*
X170215836Y-62198261D01*
X170171719Y-62185755D01*
X170106753Y-62166172D01*
X170042741Y-62126838D01*
X169967712Y-62058040D01*
X169869694Y-61950066D01*
X169842867Y-61918934D01*
X169355407Y-61305119D01*
X168904084Y-60646543D01*
X168495940Y-59954889D01*
X168138019Y-59241840D01*
X167915316Y-58721625D01*
X167831160Y-58501341D01*
X167747206Y-58266608D01*
X167667942Y-58031302D01*
X167597858Y-57809296D01*
X167541444Y-57614464D01*
X167503188Y-57460680D01*
X167496314Y-57426714D01*
X167466990Y-57338813D01*
X167422468Y-57272341D01*
X167374382Y-57237760D01*
X167334365Y-57245529D01*
X167320880Y-57268966D01*
X167309910Y-57312938D01*
X167287838Y-57411085D01*
X167256386Y-57555394D01*
X167217281Y-57737848D01*
X167172245Y-57950433D01*
X167123004Y-58185135D01*
X167099318Y-58298786D01*
X167049128Y-58537252D01*
X167002378Y-58753907D01*
X166960743Y-58941415D01*
X166925896Y-59092442D01*
X166899513Y-59199651D01*
X166883266Y-59255709D01*
X166879425Y-59262241D01*
X166860519Y-59229281D01*
X166827143Y-59152722D01*
X166786315Y-59048722D01*
X166783848Y-59042142D01*
X166739408Y-58930816D01*
X166703946Y-58867405D01*
X166667758Y-58839135D01*
X166625098Y-58833183D01*
X166532445Y-58838667D01*
X166466932Y-58861430D01*
X166417123Y-58912715D01*
X166371583Y-59003765D01*
X166325098Y-59128147D01*
X166286020Y-59222155D01*
X166227296Y-59343247D01*
X166155454Y-59480080D01*
X166077020Y-59621310D01*
X165998518Y-59755596D01*
X165926475Y-59871593D01*
X165867417Y-59957959D01*
X165827870Y-60003352D01*
X165819186Y-60007500D01*
X165802349Y-59980257D01*
X165771065Y-59909092D01*
X165735000Y-59817000D01*
X165695048Y-59718976D01*
X165660730Y-59650217D01*
X165640800Y-59626500D01*
X165595918Y-59653117D01*
X165544124Y-59719800D01*
X165499812Y-59806794D01*
X165490456Y-59832875D01*
X165465391Y-59889712D01*
X165424127Y-59923344D01*
X165348015Y-59945056D01*
X165287875Y-59955478D01*
X165188196Y-59976879D01*
X165115768Y-60002660D01*
X165093105Y-60018978D01*
X165073345Y-60063061D01*
X165038687Y-60152285D01*
X164994814Y-60271719D01*
X164966105Y-60352601D01*
X164906361Y-60510858D01*
X164847080Y-60632313D01*
X164773769Y-60741878D01*
X164671937Y-60864462D01*
X164661329Y-60876476D01*
X164528788Y-61030001D01*
X164414705Y-61173016D01*
X164315293Y-61313583D01*
X164226767Y-61459769D01*
X164145339Y-61619637D01*
X164067224Y-61801251D01*
X163988635Y-62012678D01*
X163905785Y-62261981D01*
X163814890Y-62557224D01*
X163718482Y-62884697D01*
X163684979Y-62914555D01*
X163610017Y-62953074D01*
X163546969Y-62978230D01*
X163439685Y-63027961D01*
X163339266Y-63102442D01*
X163227465Y-63215606D01*
X163208968Y-63236345D01*
X163125076Y-63327850D01*
X163055509Y-63397383D01*
X163011734Y-63433709D01*
X163004701Y-63436500D01*
X162987571Y-63426515D01*
X162972529Y-63394093D01*
X162959422Y-63335532D01*
X162948099Y-63247131D01*
X162938407Y-63125188D01*
X162930192Y-62966001D01*
X162923302Y-62765870D01*
X162917584Y-62521093D01*
X162912886Y-62227968D01*
X162909055Y-61882794D01*
X162905938Y-61481869D01*
X162903382Y-61021492D01*
X162903167Y-60975415D01*
X162893375Y-58847705D01*
X162994703Y-58641790D01*
X163062290Y-58520945D01*
X163138604Y-58408926D01*
X163201078Y-58336317D01*
X163259528Y-58290070D01*
X163362683Y-58217863D01*
X163500680Y-58126209D01*
X163663657Y-58021624D01*
X163841751Y-57910622D01*
X163893500Y-57878963D01*
X164073481Y-57767147D01*
X164264788Y-57644485D01*
X164460063Y-57516087D01*
X164651948Y-57387060D01*
X164833084Y-57262514D01*
X164996113Y-57147558D01*
X165133676Y-57047299D01*
X165238416Y-56966848D01*
X165302972Y-56911312D01*
X165320758Y-56888062D01*
X165298087Y-56864902D01*
X165290833Y-56864250D01*
X165241205Y-56878836D01*
X165144129Y-56919832D01*
X165007820Y-56983091D01*
X164840494Y-57064465D01*
X164650369Y-57159808D01*
X164445660Y-57264972D01*
X164234584Y-57375812D01*
X164025356Y-57488181D01*
X163826193Y-57597931D01*
X163732988Y-57650508D01*
X163503091Y-57783309D01*
X163321864Y-57892814D01*
X163181306Y-57984377D01*
X163073419Y-58063349D01*
X162990201Y-58135084D01*
X162953099Y-58172277D01*
X162774775Y-58405574D01*
X162653250Y-58666977D01*
X162594475Y-58916231D01*
X162588203Y-58991415D01*
X162582197Y-59122000D01*
X162576502Y-59301356D01*
X162571164Y-59522857D01*
X162566227Y-59779874D01*
X162561737Y-60065779D01*
X162557738Y-60373945D01*
X162554275Y-60697744D01*
X162551393Y-61030548D01*
X162549138Y-61365729D01*
X162547554Y-61696659D01*
X162546686Y-62016711D01*
X162546580Y-62319256D01*
X162547280Y-62597667D01*
X162548831Y-62845316D01*
X162551278Y-63055575D01*
X162554666Y-63221816D01*
X162559041Y-63337412D01*
X162564081Y-63393910D01*
X162639670Y-63643340D01*
X162767122Y-63884879D01*
X162935855Y-64099133D01*
X162965072Y-64128701D01*
X163012112Y-64171405D01*
X163073066Y-64219959D01*
X163152072Y-64276917D01*
X163253269Y-64344834D01*
X163380794Y-64426263D01*
X163538785Y-64523758D01*
X163731380Y-64639873D01*
X163962717Y-64777164D01*
X164236935Y-64938182D01*
X164558170Y-65125484D01*
X164923759Y-65337681D01*
X165236323Y-65518492D01*
X165536829Y-65691719D01*
X165820079Y-65854402D01*
X166080876Y-66003587D01*
X166314022Y-66136314D01*
X166514318Y-66249628D01*
X166676567Y-66340571D01*
X166795571Y-66406185D01*
X166866133Y-66443514D01*
X166875223Y-66447909D01*
X167036833Y-66500902D01*
X167236545Y-66534119D01*
X167451804Y-66546563D01*
X167660053Y-66537239D01*
X167838736Y-66505150D01*
X167879524Y-66492262D01*
X167937666Y-66465439D01*
X168044760Y-66409749D01*
X168194980Y-66328447D01*
X168382500Y-66224784D01*
X168601494Y-66102014D01*
X168846134Y-65963387D01*
X169110596Y-65812158D01*
X169389053Y-65651579D01*
X169482899Y-65597161D01*
X169908140Y-65350283D01*
X170282137Y-65132967D01*
X170608468Y-64942728D01*
X170890706Y-64777076D01*
X171132427Y-64633524D01*
X171337207Y-64509585D01*
X171508621Y-64402770D01*
X171650243Y-64310592D01*
X171765649Y-64230564D01*
X171858415Y-64160198D01*
X171932115Y-64097005D01*
X171990325Y-64038499D01*
X172036620Y-63982192D01*
X172074576Y-63925595D01*
X172107766Y-63866222D01*
X172139768Y-63801584D01*
X172174155Y-63729195D01*
X172177473Y-63722250D01*
X172291375Y-63484125D01*
X172287320Y-61214000D01*
X172286436Y-60775600D01*
X172285381Y-60395988D01*
X172284041Y-60070453D01*
X172282300Y-59794283D01*
X172280044Y-59562766D01*
X172277156Y-59371192D01*
X172273521Y-59214847D01*
X172269024Y-59089020D01*
X172263550Y-58989000D01*
X172256983Y-58910076D01*
X172249207Y-58847535D01*
X172240108Y-58796665D01*
X172229570Y-58752756D01*
X172226805Y-58742696D01*
X172143066Y-58525699D01*
X172021031Y-58316258D01*
X171874845Y-58136645D01*
X171795706Y-58063833D01*
X171744997Y-58030087D01*
X171647767Y-57972247D01*
X171511389Y-57894283D01*
X171343237Y-57800160D01*
X171150685Y-57693845D01*
X170941108Y-57579305D01*
X170721880Y-57460508D01*
X170500374Y-57341421D01*
X170283965Y-57226010D01*
X170080027Y-57118242D01*
X169895933Y-57022085D01*
X169739059Y-56941506D01*
X169616778Y-56880471D01*
X169536464Y-56842947D01*
X169506842Y-56832499D01*
X169482472Y-56854339D01*
G37*
X169482472Y-56854339D02*
X169482465Y-56856312D01*
X169508661Y-56887412D01*
X169581153Y-56947467D01*
X169692611Y-57031424D01*
X169835709Y-57134229D01*
X170003116Y-57250827D01*
X170187505Y-57376165D01*
X170381546Y-57505189D01*
X170577912Y-57632844D01*
X170769273Y-57754077D01*
X170909222Y-57840247D01*
X171151428Y-57989308D01*
X171344963Y-58114209D01*
X171497067Y-58220896D01*
X171614977Y-58315316D01*
X171705933Y-58403414D01*
X171777173Y-58491137D01*
X171835935Y-58584432D01*
X171852673Y-58615269D01*
X171942125Y-58785125D01*
X171940162Y-61055250D01*
X171939521Y-61431454D01*
X171938297Y-61790659D01*
X171936548Y-62127570D01*
X171934328Y-62436890D01*
X171931694Y-62713326D01*
X171928703Y-62951581D01*
X171925411Y-63146360D01*
X171921872Y-63292369D01*
X171918145Y-63384310D01*
X171915137Y-63415108D01*
X171892076Y-63504841D01*
X171774226Y-63435389D01*
X171641382Y-63349388D01*
X171474748Y-63229739D01*
X171286777Y-63086309D01*
X171089924Y-62928968D01*
X170896641Y-62767584D01*
X170719381Y-62612026D01*
X170624500Y-62524269D01*
X170479447Y-62389632D01*
X170368875Y-62294822D01*
X170283950Y-62233234D01*
X170215836Y-62198261D01*
X170171719Y-62185755D01*
X170106753Y-62166172D01*
X170042741Y-62126838D01*
X169967712Y-62058040D01*
X169869694Y-61950066D01*
X169842867Y-61918934D01*
X169355407Y-61305119D01*
X168904084Y-60646543D01*
X168495940Y-59954889D01*
X168138019Y-59241840D01*
X167915316Y-58721625D01*
X167831160Y-58501341D01*
X167747206Y-58266608D01*
X167667942Y-58031302D01*
X167597858Y-57809296D01*
X167541444Y-57614464D01*
X167503188Y-57460680D01*
X167496314Y-57426714D01*
X167466990Y-57338813D01*
X167422468Y-57272341D01*
X167374382Y-57237760D01*
X167334365Y-57245529D01*
X167320880Y-57268966D01*
X167309910Y-57312938D01*
X167287838Y-57411085D01*
X167256386Y-57555394D01*
X167217281Y-57737848D01*
X167172245Y-57950433D01*
X167123004Y-58185135D01*
X167099318Y-58298786D01*
X167049128Y-58537252D01*
X167002378Y-58753907D01*
X166960743Y-58941415D01*
X166925896Y-59092442D01*
X166899513Y-59199651D01*
X166883266Y-59255709D01*
X166879425Y-59262241D01*
X166860519Y-59229281D01*
X166827143Y-59152722D01*
X166786315Y-59048722D01*
X166783848Y-59042142D01*
X166739408Y-58930816D01*
X166703946Y-58867405D01*
X166667758Y-58839135D01*
X166625098Y-58833183D01*
X166532445Y-58838667D01*
X166466932Y-58861430D01*
X166417123Y-58912715D01*
X166371583Y-59003765D01*
X166325098Y-59128147D01*
X166286020Y-59222155D01*
X166227296Y-59343247D01*
X166155454Y-59480080D01*
X166077020Y-59621310D01*
X165998518Y-59755596D01*
X165926475Y-59871593D01*
X165867417Y-59957959D01*
X165827870Y-60003352D01*
X165819186Y-60007500D01*
X165802349Y-59980257D01*
X165771065Y-59909092D01*
X165735000Y-59817000D01*
X165695048Y-59718976D01*
X165660730Y-59650217D01*
X165640800Y-59626500D01*
X165595918Y-59653117D01*
X165544124Y-59719800D01*
X165499812Y-59806794D01*
X165490456Y-59832875D01*
X165465391Y-59889712D01*
X165424127Y-59923344D01*
X165348015Y-59945056D01*
X165287875Y-59955478D01*
X165188196Y-59976879D01*
X165115768Y-60002660D01*
X165093105Y-60018978D01*
X165073345Y-60063061D01*
X165038687Y-60152285D01*
X164994814Y-60271719D01*
X164966105Y-60352601D01*
X164906361Y-60510858D01*
X164847080Y-60632313D01*
X164773769Y-60741878D01*
X164671937Y-60864462D01*
X164661329Y-60876476D01*
X164528788Y-61030001D01*
X164414705Y-61173016D01*
X164315293Y-61313583D01*
X164226767Y-61459769D01*
X164145339Y-61619637D01*
X164067224Y-61801251D01*
X163988635Y-62012678D01*
X163905785Y-62261981D01*
X163814890Y-62557224D01*
X163718482Y-62884697D01*
X163684979Y-62914555D01*
X163610017Y-62953074D01*
X163546969Y-62978230D01*
X163439685Y-63027961D01*
X163339266Y-63102442D01*
X163227465Y-63215606D01*
X163208968Y-63236345D01*
X163125076Y-63327850D01*
X163055509Y-63397383D01*
X163011734Y-63433709D01*
X163004701Y-63436500D01*
X162987571Y-63426515D01*
X162972529Y-63394093D01*
X162959422Y-63335532D01*
X162948099Y-63247131D01*
X162938407Y-63125188D01*
X162930192Y-62966001D01*
X162923302Y-62765870D01*
X162917584Y-62521093D01*
X162912886Y-62227968D01*
X162909055Y-61882794D01*
X162905938Y-61481869D01*
X162903382Y-61021492D01*
X162903167Y-60975415D01*
X162893375Y-58847705D01*
X162994703Y-58641790D01*
X163062290Y-58520945D01*
X163138604Y-58408926D01*
X163201078Y-58336317D01*
X163259528Y-58290070D01*
X163362683Y-58217863D01*
X163500680Y-58126209D01*
X163663657Y-58021624D01*
X163841751Y-57910622D01*
X163893500Y-57878963D01*
X164073481Y-57767147D01*
X164264788Y-57644485D01*
X164460063Y-57516087D01*
X164651948Y-57387060D01*
X164833084Y-57262514D01*
X164996113Y-57147558D01*
X165133676Y-57047299D01*
X165238416Y-56966848D01*
X165302972Y-56911312D01*
X165320758Y-56888062D01*
X165298087Y-56864902D01*
X165290833Y-56864250D01*
X165241205Y-56878836D01*
X165144129Y-56919832D01*
X165007820Y-56983091D01*
X164840494Y-57064465D01*
X164650369Y-57159808D01*
X164445660Y-57264972D01*
X164234584Y-57375812D01*
X164025356Y-57488181D01*
X163826193Y-57597931D01*
X163732988Y-57650508D01*
X163503091Y-57783309D01*
X163321864Y-57892814D01*
X163181306Y-57984377D01*
X163073419Y-58063349D01*
X162990201Y-58135084D01*
X162953099Y-58172277D01*
X162774775Y-58405574D01*
X162653250Y-58666977D01*
X162594475Y-58916231D01*
X162588203Y-58991415D01*
X162582197Y-59122000D01*
X162576502Y-59301356D01*
X162571164Y-59522857D01*
X162566227Y-59779874D01*
X162561737Y-60065779D01*
X162557738Y-60373945D01*
X162554275Y-60697744D01*
X162551393Y-61030548D01*
X162549138Y-61365729D01*
X162547554Y-61696659D01*
X162546686Y-62016711D01*
X162546580Y-62319256D01*
X162547280Y-62597667D01*
X162548831Y-62845316D01*
X162551278Y-63055575D01*
X162554666Y-63221816D01*
X162559041Y-63337412D01*
X162564081Y-63393910D01*
X162639670Y-63643340D01*
X162767122Y-63884879D01*
X162935855Y-64099133D01*
X162965072Y-64128701D01*
X163012112Y-64171405D01*
X163073066Y-64219959D01*
X163152072Y-64276917D01*
X163253269Y-64344834D01*
X163380794Y-64426263D01*
X163538785Y-64523758D01*
X163731380Y-64639873D01*
X163962717Y-64777164D01*
X164236935Y-64938182D01*
X164558170Y-65125484D01*
X164923759Y-65337681D01*
X165236323Y-65518492D01*
X165536829Y-65691719D01*
X165820079Y-65854402D01*
X166080876Y-66003587D01*
X166314022Y-66136314D01*
X166514318Y-66249628D01*
X166676567Y-66340571D01*
X166795571Y-66406185D01*
X166866133Y-66443514D01*
X166875223Y-66447909D01*
X167036833Y-66500902D01*
X167236545Y-66534119D01*
X167451804Y-66546563D01*
X167660053Y-66537239D01*
X167838736Y-66505150D01*
X167879524Y-66492262D01*
X167937666Y-66465439D01*
X168044760Y-66409749D01*
X168194980Y-66328447D01*
X168382500Y-66224784D01*
X168601494Y-66102014D01*
X168846134Y-65963387D01*
X169110596Y-65812158D01*
X169389053Y-65651579D01*
X169482899Y-65597161D01*
X169908140Y-65350283D01*
X170282137Y-65132967D01*
X170608468Y-64942728D01*
X170890706Y-64777076D01*
X171132427Y-64633524D01*
X171337207Y-64509585D01*
X171508621Y-64402770D01*
X171650243Y-64310592D01*
X171765649Y-64230564D01*
X171858415Y-64160198D01*
X171932115Y-64097005D01*
X171990325Y-64038499D01*
X172036620Y-63982192D01*
X172074576Y-63925595D01*
X172107766Y-63866222D01*
X172139768Y-63801584D01*
X172174155Y-63729195D01*
X172177473Y-63722250D01*
X172291375Y-63484125D01*
X172287320Y-61214000D01*
X172286436Y-60775600D01*
X172285381Y-60395988D01*
X172284041Y-60070453D01*
X172282300Y-59794283D01*
X172280044Y-59562766D01*
X172277156Y-59371192D01*
X172273521Y-59214847D01*
X172269024Y-59089020D01*
X172263550Y-58989000D01*
X172256983Y-58910076D01*
X172249207Y-58847535D01*
X172240108Y-58796665D01*
X172229570Y-58752756D01*
X172226805Y-58742696D01*
X172143066Y-58525699D01*
X172021031Y-58316258D01*
X171874845Y-58136645D01*
X171795706Y-58063833D01*
X171744997Y-58030087D01*
X171647767Y-57972247D01*
X171511389Y-57894283D01*
X171343237Y-57800160D01*
X171150685Y-57693845D01*
X170941108Y-57579305D01*
X170721880Y-57460508D01*
X170500374Y-57341421D01*
X170283965Y-57226010D01*
X170080027Y-57118242D01*
X169895933Y-57022085D01*
X169739059Y-56941506D01*
X169616778Y-56880471D01*
X169536464Y-56842947D01*
X169506842Y-56832499D01*
X169482472Y-56854339D01*
G36*
X167662320Y-56095737D02*
G01*
X167678457Y-56159090D01*
X167702833Y-56226381D01*
X167754695Y-56357098D01*
X167811223Y-56499713D01*
X167832997Y-56554687D01*
X167916808Y-56721377D01*
X168046831Y-56912424D01*
X168226362Y-57132596D01*
X168255758Y-57166155D01*
X168317541Y-57232051D01*
X168358732Y-57268150D01*
X168368929Y-57269700D01*
X168358366Y-57232415D01*
X168328744Y-57149399D01*
X168284883Y-57033761D01*
X168242522Y-56925920D01*
X168152291Y-56720879D01*
X168053926Y-56547709D01*
X167929510Y-56375540D01*
X167905846Y-56345845D01*
X167816705Y-56237438D01*
X167740556Y-56149060D01*
X167687034Y-56091646D01*
X167667782Y-56075569D01*
X167662320Y-56095737D01*
G37*
X167662320Y-56095737D02*
X167678457Y-56159090D01*
X167702833Y-56226381D01*
X167754695Y-56357098D01*
X167811223Y-56499713D01*
X167832997Y-56554687D01*
X167916808Y-56721377D01*
X168046831Y-56912424D01*
X168226362Y-57132596D01*
X168255758Y-57166155D01*
X168317541Y-57232051D01*
X168358732Y-57268150D01*
X168368929Y-57269700D01*
X168358366Y-57232415D01*
X168328744Y-57149399D01*
X168284883Y-57033761D01*
X168242522Y-56925920D01*
X168152291Y-56720879D01*
X168053926Y-56547709D01*
X167929510Y-56375540D01*
X167905846Y-56345845D01*
X167816705Y-56237438D01*
X167740556Y-56149060D01*
X167687034Y-56091646D01*
X167667782Y-56075569D01*
X167662320Y-56095737D01*
G36*
X167134127Y-56106814D02*
G01*
X167081449Y-56159268D01*
X167006520Y-56244628D01*
X166928232Y-56340560D01*
X166800106Y-56513100D01*
X166702916Y-56673754D01*
X166619590Y-56852204D01*
X166586575Y-56934548D01*
X166537429Y-57065369D01*
X166500075Y-57172759D01*
X166478729Y-57244054D01*
X166476036Y-57266619D01*
X166499629Y-57248641D01*
X166553719Y-57189881D01*
X166629980Y-57099806D01*
X166710070Y-57000566D01*
X166850222Y-56809710D01*
X166956725Y-56629062D01*
X167046299Y-56430159D01*
X167048761Y-56423961D01*
X167097476Y-56295694D01*
X167134226Y-56188696D01*
X167154391Y-56117053D01*
X167156384Y-56096025D01*
X167134127Y-56106814D01*
G37*
X167134127Y-56106814D02*
X167081449Y-56159268D01*
X167006520Y-56244628D01*
X166928232Y-56340560D01*
X166800106Y-56513100D01*
X166702916Y-56673754D01*
X166619590Y-56852204D01*
X166586575Y-56934548D01*
X166537429Y-57065369D01*
X166500075Y-57172759D01*
X166478729Y-57244054D01*
X166476036Y-57266619D01*
X166499629Y-57248641D01*
X166553719Y-57189881D01*
X166629980Y-57099806D01*
X166710070Y-57000566D01*
X166850222Y-56809710D01*
X166956725Y-56629062D01*
X167046299Y-56430159D01*
X167048761Y-56423961D01*
X167097476Y-56295694D01*
X167134226Y-56188696D01*
X167154391Y-56117053D01*
X167156384Y-56096025D01*
X167134127Y-56106814D01*
G36*
X167865244Y-55910182D02*
G01*
X167918717Y-55962651D01*
X168004871Y-56037569D01*
X168103078Y-56117513D01*
X168302641Y-56263365D01*
X168495117Y-56374996D01*
X168680107Y-56457993D01*
X168809635Y-56508617D01*
X168918769Y-56548490D01*
X168993135Y-56572513D01*
X169016218Y-56577209D01*
X169016730Y-56558602D01*
X168977093Y-56512651D01*
X168941750Y-56480308D01*
X168751500Y-56323949D01*
X168582695Y-56203660D01*
X168415763Y-56107036D01*
X168231132Y-56021672D01*
X168193895Y-56006295D01*
X168062906Y-55954825D01*
X167953315Y-55915174D01*
X167878561Y-55891999D01*
X167853292Y-55888277D01*
X167865244Y-55910182D01*
G37*
X167865244Y-55910182D02*
X167918717Y-55962651D01*
X168004871Y-56037569D01*
X168103078Y-56117513D01*
X168302641Y-56263365D01*
X168495117Y-56374996D01*
X168680107Y-56457993D01*
X168809635Y-56508617D01*
X168918769Y-56548490D01*
X168993135Y-56572513D01*
X169016218Y-56577209D01*
X169016730Y-56558602D01*
X168977093Y-56512651D01*
X168941750Y-56480308D01*
X168751500Y-56323949D01*
X168582695Y-56203660D01*
X168415763Y-56107036D01*
X168231132Y-56021672D01*
X168193895Y-56006295D01*
X168062906Y-55954825D01*
X167953315Y-55915174D01*
X167878561Y-55891999D01*
X167853292Y-55888277D01*
X167865244Y-55910182D01*
G36*
X166868407Y-55921340D02*
G01*
X166733511Y-55970179D01*
X166618935Y-56016236D01*
X166406213Y-56112832D01*
X166226289Y-56216717D01*
X166049295Y-56345441D01*
X166023604Y-56365995D01*
X165915156Y-56457314D01*
X165842834Y-56526187D01*
X165812098Y-56567010D01*
X165819139Y-56575873D01*
X165872618Y-56562981D01*
X165968486Y-56530462D01*
X166090867Y-56483928D01*
X166169170Y-56452134D01*
X166422383Y-56325385D01*
X166686214Y-56154189D01*
X166942242Y-55950569D01*
X166955259Y-55939087D01*
X166980947Y-55905412D01*
X166951441Y-55899623D01*
X166868407Y-55921340D01*
G37*
X166868407Y-55921340D02*
X166733511Y-55970179D01*
X166618935Y-56016236D01*
X166406213Y-56112832D01*
X166226289Y-56216717D01*
X166049295Y-56345441D01*
X166023604Y-56365995D01*
X165915156Y-56457314D01*
X165842834Y-56526187D01*
X165812098Y-56567010D01*
X165819139Y-56575873D01*
X165872618Y-56562981D01*
X165968486Y-56530462D01*
X166090867Y-56483928D01*
X166169170Y-56452134D01*
X166422383Y-56325385D01*
X166686214Y-56154189D01*
X166942242Y-55950569D01*
X166955259Y-55939087D01*
X166980947Y-55905412D01*
X166951441Y-55899623D01*
X166868407Y-55921340D01*
G36*
X168450164Y-55547127D02*
G01*
X168329583Y-55562000D01*
X168193086Y-55582291D01*
X168075020Y-55602807D01*
X167993584Y-55620262D01*
X167973736Y-55626243D01*
X167940776Y-55643693D01*
X167959010Y-55656940D01*
X168021000Y-55669525D01*
X168115706Y-55685694D01*
X168239482Y-55706860D01*
X168320519Y-55720732D01*
X168448350Y-55739476D01*
X168564075Y-55747375D01*
X168686352Y-55743917D01*
X168833839Y-55728590D01*
X169021125Y-55701513D01*
X169151072Y-55680781D01*
X169257791Y-55662644D01*
X169325210Y-55649883D01*
X169338625Y-55646576D01*
X169321946Y-55638091D01*
X169253255Y-55622760D01*
X169143403Y-55602720D01*
X169003241Y-55580112D01*
X168995972Y-55579004D01*
X168820812Y-55554188D01*
X168686065Y-55540976D01*
X168569820Y-55538809D01*
X168450164Y-55547127D01*
G37*
X168450164Y-55547127D02*
X168329583Y-55562000D01*
X168193086Y-55582291D01*
X168075020Y-55602807D01*
X167993584Y-55620262D01*
X167973736Y-55626243D01*
X167940776Y-55643693D01*
X167959010Y-55656940D01*
X168021000Y-55669525D01*
X168115706Y-55685694D01*
X168239482Y-55706860D01*
X168320519Y-55720732D01*
X168448350Y-55739476D01*
X168564075Y-55747375D01*
X168686352Y-55743917D01*
X168833839Y-55728590D01*
X169021125Y-55701513D01*
X169151072Y-55680781D01*
X169257791Y-55662644D01*
X169325210Y-55649883D01*
X169338625Y-55646576D01*
X169321946Y-55638091D01*
X169253255Y-55622760D01*
X169143403Y-55602720D01*
X169003241Y-55580112D01*
X168995972Y-55579004D01*
X168820812Y-55554188D01*
X168686065Y-55540976D01*
X168569820Y-55538809D01*
X168450164Y-55547127D01*
G36*
X166080126Y-55545592D02*
G01*
X165922206Y-55564463D01*
X165848016Y-55575292D01*
X165707405Y-55597195D01*
X165592099Y-55616602D01*
X165515271Y-55631203D01*
X165490059Y-55638107D01*
X165512983Y-55647712D01*
X165584847Y-55662647D01*
X165691523Y-55680867D01*
X165818881Y-55700325D01*
X165952793Y-55718974D01*
X166079129Y-55734768D01*
X166183760Y-55745660D01*
X166252557Y-55749603D01*
X166258875Y-55749470D01*
X166345689Y-55742195D01*
X166461813Y-55727938D01*
X166528750Y-55718109D01*
X166693629Y-55691853D01*
X166803780Y-55672898D01*
X166867252Y-55658982D01*
X166892095Y-55647847D01*
X166886358Y-55637230D01*
X166859211Y-55625299D01*
X166799254Y-55610209D01*
X166694314Y-55590981D01*
X166562486Y-55570775D01*
X166494086Y-55561542D01*
X166340701Y-55544671D01*
X166211170Y-55539174D01*
X166080126Y-55545592D01*
G37*
X166080126Y-55545592D02*
X165922206Y-55564463D01*
X165848016Y-55575292D01*
X165707405Y-55597195D01*
X165592099Y-55616602D01*
X165515271Y-55631203D01*
X165490059Y-55638107D01*
X165512983Y-55647712D01*
X165584847Y-55662647D01*
X165691523Y-55680867D01*
X165818881Y-55700325D01*
X165952793Y-55718974D01*
X166079129Y-55734768D01*
X166183760Y-55745660D01*
X166252557Y-55749603D01*
X166258875Y-55749470D01*
X166345689Y-55742195D01*
X166461813Y-55727938D01*
X166528750Y-55718109D01*
X166693629Y-55691853D01*
X166803780Y-55672898D01*
X166867252Y-55658982D01*
X166892095Y-55647847D01*
X166886358Y-55637230D01*
X166859211Y-55625299D01*
X166799254Y-55610209D01*
X166694314Y-55590981D01*
X166562486Y-55570775D01*
X166494086Y-55561542D01*
X166340701Y-55544671D01*
X166211170Y-55539174D01*
X166080126Y-55545592D01*
G36*
X169009791Y-54704281D02*
G01*
X168935917Y-54725918D01*
X168827008Y-54765074D01*
X168708836Y-54812050D01*
X168461138Y-54927654D01*
X168241263Y-55062227D01*
X168105586Y-55162468D01*
X167965614Y-55272675D01*
X167875593Y-55347760D01*
X167837038Y-55389633D01*
X167851463Y-55400206D01*
X167920386Y-55381389D01*
X168045322Y-55335093D01*
X168195625Y-55275985D01*
X168405131Y-55183629D01*
X168584081Y-55080863D01*
X168764869Y-54948949D01*
X168775063Y-54940833D01*
X168882876Y-54852237D01*
X168969143Y-54776669D01*
X169023470Y-54723529D01*
X169037000Y-54703994D01*
X169009791Y-54704281D01*
G37*
X169009791Y-54704281D02*
X168935917Y-54725918D01*
X168827008Y-54765074D01*
X168708836Y-54812050D01*
X168461138Y-54927654D01*
X168241263Y-55062227D01*
X168105586Y-55162468D01*
X167965614Y-55272675D01*
X167875593Y-55347760D01*
X167837038Y-55389633D01*
X167851463Y-55400206D01*
X167920386Y-55381389D01*
X168045322Y-55335093D01*
X168195625Y-55275985D01*
X168405131Y-55183629D01*
X168584081Y-55080863D01*
X168764869Y-54948949D01*
X168775063Y-54940833D01*
X168882876Y-54852237D01*
X168969143Y-54776669D01*
X169023470Y-54723529D01*
X169037000Y-54703994D01*
X169009791Y-54704281D01*
G36*
X165809020Y-54723133D02*
G01*
X165854937Y-54771765D01*
X165935746Y-54843619D01*
X166038250Y-54927003D01*
X166145430Y-55009072D01*
X166242140Y-55076611D01*
X166340546Y-55135980D01*
X166452812Y-55193535D01*
X166591107Y-55255632D01*
X166767595Y-55328631D01*
X166933563Y-55394840D01*
X166969337Y-55393493D01*
X166973183Y-55383334D01*
X166949713Y-55353538D01*
X166886372Y-55294502D01*
X166793672Y-55215636D01*
X166713642Y-55151057D01*
X166482659Y-54988280D01*
X166241930Y-54862336D01*
X166155054Y-54825619D01*
X166023777Y-54774694D01*
X165911005Y-54734439D01*
X165831903Y-54710081D01*
X165805883Y-54705250D01*
X165809020Y-54723133D01*
G37*
X165809020Y-54723133D02*
X165854937Y-54771765D01*
X165935746Y-54843619D01*
X166038250Y-54927003D01*
X166145430Y-55009072D01*
X166242140Y-55076611D01*
X166340546Y-55135980D01*
X166452812Y-55193535D01*
X166591107Y-55255632D01*
X166767595Y-55328631D01*
X166933563Y-55394840D01*
X166969337Y-55393493D01*
X166973183Y-55383334D01*
X166949713Y-55353538D01*
X166886372Y-55294502D01*
X166793672Y-55215636D01*
X166713642Y-55151057D01*
X166482659Y-54988280D01*
X166241930Y-54862336D01*
X166155054Y-54825619D01*
X166023777Y-54774694D01*
X165911005Y-54734439D01*
X165831903Y-54710081D01*
X165805883Y-54705250D01*
X165809020Y-54723133D01*
G36*
X168329185Y-54012010D02*
G01*
X168298485Y-54046660D01*
X168262081Y-54093818D01*
X168198030Y-54176653D01*
X168117568Y-54280635D01*
X168079174Y-54330231D01*
X167988322Y-54456850D01*
X167905385Y-54588638D01*
X167844756Y-54702253D01*
X167833111Y-54729200D01*
X167780801Y-54860972D01*
X167725184Y-55001057D01*
X167703964Y-55054500D01*
X167673352Y-55141842D01*
X167660945Y-55199502D01*
X167665433Y-55213250D01*
X167693553Y-55189622D01*
X167751225Y-55125507D01*
X167829692Y-55031059D01*
X167908905Y-54931021D01*
X168045479Y-54741769D01*
X168149735Y-54562532D01*
X168238786Y-54363456D01*
X168248776Y-54338069D01*
X168309430Y-54174489D01*
X168343145Y-54065061D01*
X168349778Y-54010622D01*
X168329185Y-54012010D01*
G37*
X168329185Y-54012010D02*
X168298485Y-54046660D01*
X168262081Y-54093818D01*
X168198030Y-54176653D01*
X168117568Y-54280635D01*
X168079174Y-54330231D01*
X167988322Y-54456850D01*
X167905385Y-54588638D01*
X167844756Y-54702253D01*
X167833111Y-54729200D01*
X167780801Y-54860972D01*
X167725184Y-55001057D01*
X167703964Y-55054500D01*
X167673352Y-55141842D01*
X167660945Y-55199502D01*
X167665433Y-55213250D01*
X167693553Y-55189622D01*
X167751225Y-55125507D01*
X167829692Y-55031059D01*
X167908905Y-54931021D01*
X168045479Y-54741769D01*
X168149735Y-54562532D01*
X168238786Y-54363456D01*
X168248776Y-54338069D01*
X168309430Y-54174489D01*
X168343145Y-54065061D01*
X168349778Y-54010622D01*
X168329185Y-54012010D01*
G36*
X166483024Y-54048669D02*
G01*
X166507532Y-54128526D01*
X166547483Y-54241961D01*
X166588978Y-54351508D01*
X166675323Y-54552637D01*
X166769277Y-54722557D01*
X166888865Y-54892699D01*
X166928335Y-54943318D01*
X167015949Y-55052704D01*
X167088279Y-55140803D01*
X167136850Y-55197434D01*
X167153001Y-55213250D01*
X167161989Y-55187948D01*
X167162141Y-55173562D01*
X167150107Y-55128582D01*
X167119033Y-55039751D01*
X167074255Y-54921854D01*
X167042351Y-54841637D01*
X166931162Y-54605843D01*
X166789970Y-54383228D01*
X166708443Y-54274926D01*
X166620564Y-54165925D01*
X166547179Y-54080169D01*
X166496722Y-54027177D01*
X166478126Y-54015041D01*
X166483024Y-54048669D01*
G37*
X166483024Y-54048669D02*
X166507532Y-54128526D01*
X166547483Y-54241961D01*
X166588978Y-54351508D01*
X166675323Y-54552637D01*
X166769277Y-54722557D01*
X166888865Y-54892699D01*
X166928335Y-54943318D01*
X167015949Y-55052704D01*
X167088279Y-55140803D01*
X167136850Y-55197434D01*
X167153001Y-55213250D01*
X167161989Y-55187948D01*
X167162141Y-55173562D01*
X167150107Y-55128582D01*
X167119033Y-55039751D01*
X167074255Y-54921854D01*
X167042351Y-54841637D01*
X166931162Y-54605843D01*
X166789970Y-54383228D01*
X166708443Y-54274926D01*
X166620564Y-54165925D01*
X166547179Y-54080169D01*
X166496722Y-54027177D01*
X166478126Y-54015041D01*
X166483024Y-54048669D01*
G36*
X167405312Y-53782085D02*
G01*
X167386919Y-53861614D01*
X167365160Y-53978624D01*
X167346028Y-54097812D01*
X167322975Y-54263426D01*
X167311588Y-54391068D01*
X167311654Y-54505144D01*
X167322962Y-54630064D01*
X167340315Y-54756624D01*
X167365371Y-54925922D01*
X167383304Y-55040832D01*
X167396161Y-55109802D01*
X167405994Y-55141278D01*
X167414850Y-55143708D01*
X167424781Y-55125538D01*
X167427995Y-55118000D01*
X167440501Y-55067415D01*
X167457863Y-54969956D01*
X167477355Y-54841792D01*
X167489161Y-54755178D01*
X167507710Y-54589969D01*
X167514250Y-54451613D01*
X167508562Y-54312714D01*
X167490427Y-54145877D01*
X167483892Y-54096365D01*
X167463489Y-53957717D01*
X167443799Y-53845855D01*
X167427285Y-53773557D01*
X167417698Y-53752749D01*
X167405312Y-53782085D01*
G37*
X167405312Y-53782085D02*
X167386919Y-53861614D01*
X167365160Y-53978624D01*
X167346028Y-54097812D01*
X167322975Y-54263426D01*
X167311588Y-54391068D01*
X167311654Y-54505144D01*
X167322962Y-54630064D01*
X167340315Y-54756624D01*
X167365371Y-54925922D01*
X167383304Y-55040832D01*
X167396161Y-55109802D01*
X167405994Y-55141278D01*
X167414850Y-55143708D01*
X167424781Y-55125538D01*
X167427995Y-55118000D01*
X167440501Y-55067415D01*
X167457863Y-54969956D01*
X167477355Y-54841792D01*
X167489161Y-54755178D01*
X167507710Y-54589969D01*
X167514250Y-54451613D01*
X167508562Y-54312714D01*
X167490427Y-54145877D01*
X167483892Y-54096365D01*
X167463489Y-53957717D01*
X167443799Y-53845855D01*
X167427285Y-53773557D01*
X167417698Y-53752749D01*
X167405312Y-53782085D01*
D11*
%TO.C,R5*%
X155983382Y-58227041D02*
X153564105Y-56940689D01*
X153564105Y-56940689D02*
X156634449Y-51166212D01*
X156634449Y-51166212D02*
X159053726Y-52452564D01*
X159053726Y-52452564D02*
X155983382Y-58227041D01*
X154412250Y-58263735D02*
X154773744Y-57583865D01*
X158205581Y-51129518D02*
X157844088Y-51809388D01*
%TO.C,R4*%
X153850987Y-82198969D02*
X151144721Y-82627599D01*
X151144721Y-82627599D02*
X150121639Y-76168118D01*
X150121639Y-76168118D02*
X152827905Y-75739487D01*
X152827905Y-75739487D02*
X153850987Y-82198969D01*
X152618308Y-83173804D02*
X152497854Y-82413284D01*
X151354318Y-75193282D02*
X151474772Y-75953802D01*
%TO.C,R3*%
X177630571Y-113714282D02*
X174917236Y-113332948D01*
X174917236Y-113332948D02*
X175827428Y-106856594D01*
X175827428Y-106856594D02*
X178540763Y-107237929D01*
X178540763Y-107237929D02*
X177630571Y-113714282D01*
X176166740Y-114286121D02*
X176273903Y-113523615D01*
X177291259Y-106284755D02*
X177184095Y-107047262D01*
%TO.C,R2*%
X155613236Y-107266052D02*
X158326571Y-106884718D01*
X158326571Y-106884718D02*
X159236763Y-113361071D01*
X159236763Y-113361071D02*
X156523428Y-113742406D01*
X156523428Y-113742406D02*
X155613236Y-107266052D01*
X156862740Y-106312879D02*
X156969903Y-107075385D01*
X157987259Y-114314245D02*
X157880095Y-113551738D01*
%TO.C,R1*%
X170656000Y-97944000D02*
X170656000Y-100684000D01*
X170656000Y-100684000D02*
X164116000Y-100684000D01*
X164116000Y-100684000D02*
X164116000Y-97944000D01*
X164116000Y-97944000D02*
X170656000Y-97944000D01*
X171426000Y-99314000D02*
X170656000Y-99314000D01*
X163346000Y-99314000D02*
X164116000Y-99314000D01*
D13*
%TO.C,BT1*%
X177546000Y-96393000D02*
X162052000Y-96393000D01*
X177546000Y-71501000D02*
X162052000Y-71501000D01*
X177546000Y-96393000D02*
X177546000Y-71501000D01*
X156464000Y-77851000D02*
X162052000Y-71501000D01*
X156464000Y-90297000D02*
X162052000Y-96393000D01*
X156464000Y-90297000D02*
X156464000Y-77851000D01*
D10*
%TO.C,SW1*%
X180776277Y-56367848D02*
X181820455Y-58417163D01*
X177916137Y-50754507D02*
X178914916Y-52714721D01*
X173817507Y-52842863D02*
X177721825Y-60505519D01*
D11*
%TO.C,D6*%
X182025000Y-67528000D02*
X182181000Y-67528000D01*
X184341000Y-67528000D02*
X184497000Y-67528000D01*
X181991000Y-66548000D02*
X184531000Y-66548000D01*
X182182392Y-70760335D02*
G75*
G02*
X182025484Y-67528000I1078608J1672335D01*
G01*
X184339608Y-70760335D02*
G75*
G03*
X184496516Y-67528000I-1078608J1672335D01*
G01*
%TO.C,D5*%
X168438000Y-48040000D02*
X168438000Y-48196000D01*
X168438000Y-50356000D02*
X168438000Y-50512000D01*
X169418000Y-48006000D02*
X169418000Y-50546000D01*
X165205665Y-48197392D02*
G75*
G02*
X168438000Y-48040484I1672335J-1078608D01*
G01*
X165205665Y-50354608D02*
G75*
G03*
X168438000Y-50511516I1672335J1078608D01*
G01*
%TO.C,D4*%
X149513000Y-67528000D02*
X149669000Y-67528000D01*
X151829000Y-67528000D02*
X151985000Y-67528000D01*
X149479000Y-66548000D02*
X152019000Y-66548000D01*
X149670392Y-70760335D02*
G75*
G02*
X149513484Y-67528000I1078608J1672335D01*
G01*
X151827608Y-70760335D02*
G75*
G03*
X151984516Y-67528000I-1078608J1672335D01*
G01*
%TO.C,D3*%
X177014136Y-97543777D02*
X177167766Y-97570866D01*
X179294950Y-97945946D02*
X179448580Y-97973035D01*
X177150827Y-96572761D02*
X179652239Y-97013827D01*
X176607847Y-100754336D02*
G75*
G02*
X177014612Y-97543861I1352620J1459630D01*
G01*
X178732291Y-101128933D02*
G75*
G03*
X179448104Y-97972951I-771824J1834227D01*
G01*
%TO.C,D2*%
X168438000Y-113826000D02*
X168438000Y-113982000D01*
X168438000Y-116142000D02*
X168438000Y-116298000D01*
X169418000Y-113792000D02*
X169418000Y-116332000D01*
X165205665Y-113983392D02*
G75*
G02*
X168438000Y-113826484I1672335J-1078608D01*
G01*
X165205665Y-116140608D02*
G75*
G03*
X168438000Y-116297516I1672335J1078608D01*
G01*
%TO.C,D1*%
X154501354Y-97757623D02*
X154654984Y-97730534D01*
X156782168Y-97355454D02*
X156935798Y-97328365D01*
X154297695Y-96798415D02*
X156799107Y-96357349D01*
X155217643Y-100913521D02*
G75*
G02*
X154501830Y-97757539I771824J1834227D01*
G01*
X157342087Y-100538924D02*
G75*
G03*
X156935322Y-97328449I-1352620J1459630D01*
G01*
%TO.C,R6*%
D10*
X160186666Y-69286380D02*
X160520000Y-68810190D01*
X160758095Y-69286380D02*
X160758095Y-68286380D01*
X160377142Y-68286380D01*
X160281904Y-68334000D01*
X160234285Y-68381619D01*
X160186666Y-68476857D01*
X160186666Y-68619714D01*
X160234285Y-68714952D01*
X160281904Y-68762571D01*
X160377142Y-68810190D01*
X160758095Y-68810190D01*
X159329523Y-68286380D02*
X159520000Y-68286380D01*
X159615238Y-68334000D01*
X159662857Y-68381619D01*
X159758095Y-68524476D01*
X159805714Y-68714952D01*
X159805714Y-69095904D01*
X159758095Y-69191142D01*
X159710476Y-69238761D01*
X159615238Y-69286380D01*
X159424761Y-69286380D01*
X159329523Y-69238761D01*
X159281904Y-69191142D01*
X159234285Y-69095904D01*
X159234285Y-68857809D01*
X159281904Y-68762571D01*
X159329523Y-68714952D01*
X159424761Y-68667333D01*
X159615238Y-68667333D01*
X159710476Y-68714952D01*
X159758095Y-68762571D01*
X159805714Y-68857809D01*
%TO.C,R5*%
X160497673Y-52770222D02*
X160233713Y-52252348D01*
X160765943Y-52265680D02*
X159882995Y-51796209D01*
X159704149Y-52132570D01*
X159701483Y-52239016D01*
X159721172Y-52303416D01*
X159782906Y-52390173D01*
X159909042Y-52457241D01*
X160015488Y-52459907D01*
X160079889Y-52440218D01*
X160166645Y-52378483D01*
X160345492Y-52042122D01*
X159189966Y-53099607D02*
X159413524Y-52679156D01*
X159856331Y-52860669D01*
X159791930Y-52880358D01*
X159705173Y-52942093D01*
X159593394Y-53152318D01*
X159590728Y-53258764D01*
X159610417Y-53323165D01*
X159672152Y-53409922D01*
X159882377Y-53521701D01*
X159988823Y-53524367D01*
X160053224Y-53504678D01*
X160139981Y-53442944D01*
X160251760Y-53232718D01*
X160254426Y-53126272D01*
X160234737Y-53061871D01*
%TO.C,R4*%
X153906395Y-79048176D02*
X154428867Y-79302913D01*
X153995786Y-79612570D02*
X154983474Y-79456135D01*
X154923880Y-79079873D01*
X154861949Y-78993257D01*
X154807467Y-78953673D01*
X154705952Y-78921539D01*
X154564853Y-78943887D01*
X154478237Y-79005818D01*
X154438654Y-79060300D01*
X154406519Y-79161815D01*
X154466113Y-79538077D01*
X154430767Y-78097297D02*
X153772308Y-78201586D01*
X154844275Y-78272866D02*
X154176030Y-78619769D01*
X154079190Y-78008343D01*
%TO.C,R3*%
X174461173Y-109625914D02*
X174036008Y-109229552D01*
X174540701Y-109060047D02*
X173550433Y-108920874D01*
X173497415Y-109298118D01*
X173531316Y-109399057D01*
X173571844Y-109452840D01*
X173659528Y-109513250D01*
X173800995Y-109533132D01*
X173901933Y-109499231D01*
X173955716Y-109458703D01*
X174016126Y-109371019D01*
X174069145Y-108993774D01*
X173424514Y-109816830D02*
X173338360Y-110429853D01*
X173761996Y-110152782D01*
X173742114Y-110294249D01*
X173776015Y-110395188D01*
X173816543Y-110448971D01*
X173904227Y-110509381D01*
X174140005Y-110542517D01*
X174240944Y-110508616D01*
X174294727Y-110468088D01*
X174355137Y-110380404D01*
X174394901Y-110097470D01*
X174360999Y-109996532D01*
X174320471Y-109942749D01*
%TO.C,R2*%
X159595217Y-110337003D02*
X160113164Y-110600820D01*
X159674744Y-110902871D02*
X160665012Y-110763698D01*
X160611994Y-110386453D01*
X160551584Y-110298769D01*
X160497801Y-110258241D01*
X160396862Y-110224339D01*
X160255395Y-110244221D01*
X160167711Y-110304632D01*
X160127183Y-110358414D01*
X160093282Y-110459353D01*
X160146300Y-110836598D01*
X160438155Y-109833840D02*
X160478683Y-109780057D01*
X160512584Y-109679118D01*
X160479448Y-109443340D01*
X160419038Y-109355656D01*
X160365255Y-109315128D01*
X160264316Y-109281227D01*
X160170005Y-109294482D01*
X160035166Y-109361519D01*
X159548826Y-110006914D01*
X159462671Y-109393891D01*
%TO.C,R1*%
X167298666Y-102306380D02*
X167632000Y-101830190D01*
X167870095Y-102306380D02*
X167870095Y-101306380D01*
X167489142Y-101306380D01*
X167393904Y-101354000D01*
X167346285Y-101401619D01*
X167298666Y-101496857D01*
X167298666Y-101639714D01*
X167346285Y-101734952D01*
X167393904Y-101782571D01*
X167489142Y-101830190D01*
X167870095Y-101830190D01*
X166346285Y-102306380D02*
X166917714Y-102306380D01*
X166632000Y-102306380D02*
X166632000Y-101306380D01*
X166727238Y-101449238D01*
X166822476Y-101544476D01*
X166917714Y-101592095D01*
%TO.C,D6*%
X180665380Y-68038214D02*
X179665380Y-68038214D01*
X179665380Y-68276309D01*
X179713000Y-68419166D01*
X179808238Y-68514404D01*
X179903476Y-68562023D01*
X180093952Y-68609642D01*
X180236809Y-68609642D01*
X180427285Y-68562023D01*
X180522523Y-68514404D01*
X180617761Y-68419166D01*
X180665380Y-68276309D01*
X180665380Y-68038214D01*
X179665380Y-69466785D02*
X179665380Y-69276309D01*
X179713000Y-69181071D01*
X179760619Y-69133452D01*
X179903476Y-69038214D01*
X180093952Y-68990595D01*
X180474904Y-68990595D01*
X180570142Y-69038214D01*
X180617761Y-69085833D01*
X180665380Y-69181071D01*
X180665380Y-69371547D01*
X180617761Y-69466785D01*
X180570142Y-69514404D01*
X180474904Y-69562023D01*
X180236809Y-69562023D01*
X180141571Y-69514404D01*
X180093952Y-69466785D01*
X180046333Y-69371547D01*
X180046333Y-69181071D01*
X180093952Y-69085833D01*
X180141571Y-69038214D01*
X180236809Y-68990595D01*
%TO.C,D5*%
X167177404Y-52522380D02*
X167177404Y-51522380D01*
X166939309Y-51522380D01*
X166796452Y-51570000D01*
X166701214Y-51665238D01*
X166653595Y-51760476D01*
X166605976Y-51950952D01*
X166605976Y-52093809D01*
X166653595Y-52284285D01*
X166701214Y-52379523D01*
X166796452Y-52474761D01*
X166939309Y-52522380D01*
X167177404Y-52522380D01*
X165701214Y-51522380D02*
X166177404Y-51522380D01*
X166225023Y-51998571D01*
X166177404Y-51950952D01*
X166082166Y-51903333D01*
X165844071Y-51903333D01*
X165748833Y-51950952D01*
X165701214Y-51998571D01*
X165653595Y-52093809D01*
X165653595Y-52331904D01*
X165701214Y-52427142D01*
X165748833Y-52474761D01*
X165844071Y-52522380D01*
X166082166Y-52522380D01*
X166177404Y-52474761D01*
X166225023Y-52427142D01*
%TO.C,D4*%
X154503380Y-68292214D02*
X153503380Y-68292214D01*
X153503380Y-68530309D01*
X153551000Y-68673166D01*
X153646238Y-68768404D01*
X153741476Y-68816023D01*
X153931952Y-68863642D01*
X154074809Y-68863642D01*
X154265285Y-68816023D01*
X154360523Y-68768404D01*
X154455761Y-68673166D01*
X154503380Y-68530309D01*
X154503380Y-68292214D01*
X153836714Y-69720785D02*
X154503380Y-69720785D01*
X153455761Y-69482690D02*
X154170047Y-69244595D01*
X154170047Y-69863642D01*
%TO.C,D3*%
X175619025Y-97552789D02*
X174634217Y-97379141D01*
X174592872Y-97613619D01*
X174614961Y-97762575D01*
X174692215Y-97872904D01*
X174777737Y-97936337D01*
X174957050Y-98016309D01*
X175097737Y-98041116D01*
X175293588Y-98027296D01*
X175395649Y-97996938D01*
X175505978Y-97919685D01*
X175577680Y-97787267D01*
X175619025Y-97552789D01*
X174477107Y-98270157D02*
X174369611Y-98879800D01*
X174802658Y-98617683D01*
X174777851Y-98758370D01*
X174808209Y-98860430D01*
X174846836Y-98915594D01*
X174932358Y-98979028D01*
X175166836Y-99020373D01*
X175268896Y-98990015D01*
X175324061Y-98951388D01*
X175387494Y-98865866D01*
X175437108Y-98584492D01*
X175406750Y-98482432D01*
X175368124Y-98427268D01*
%TO.C,D2*%
X167812404Y-112466380D02*
X167812404Y-111466380D01*
X167574309Y-111466380D01*
X167431452Y-111514000D01*
X167336214Y-111609238D01*
X167288595Y-111704476D01*
X167240976Y-111894952D01*
X167240976Y-112037809D01*
X167288595Y-112228285D01*
X167336214Y-112323523D01*
X167431452Y-112418761D01*
X167574309Y-112466380D01*
X167812404Y-112466380D01*
X166860023Y-111561619D02*
X166812404Y-111514000D01*
X166717166Y-111466380D01*
X166479071Y-111466380D01*
X166383833Y-111514000D01*
X166336214Y-111561619D01*
X166288595Y-111656857D01*
X166288595Y-111752095D01*
X166336214Y-111894952D01*
X166907642Y-112466380D01*
X166288595Y-112466380D01*
%TO.C,D1*%
X158940039Y-99691403D02*
X159924846Y-99517755D01*
X159883501Y-99283277D01*
X159811799Y-99150859D01*
X159701470Y-99073606D01*
X159599410Y-99043248D01*
X159403558Y-99029428D01*
X159262871Y-99054235D01*
X159083558Y-99134207D01*
X158998036Y-99197640D01*
X158920782Y-99307969D01*
X158898694Y-99456925D01*
X158940039Y-99691403D01*
X158675432Y-98190744D02*
X158774659Y-98753491D01*
X158725046Y-98472117D02*
X159709853Y-98298469D01*
X159585704Y-98417067D01*
X159508451Y-98527397D01*
X159478093Y-98629457D01*
%TD*%
M02*
