%TF.GenerationSoftware,KiCad,Pcbnew,(5.1.8)-1*%
%TF.CreationDate,2021-10-08T14:09:10-07:00*%
%TF.ProjectId,Halloween,48616c6c-6f77-4656-956e-2e6b69636164,rev?*%
%TF.SameCoordinates,Original*%
%TF.FileFunction,Copper,L1,Top*%
%TF.FilePolarity,Positive*%
%FSLAX46Y46*%
G04 Gerber Fmt 4.6, Leading zero omitted, Abs format (unit mm)*
G04 Created by KiCad (PCBNEW (5.1.8)-1) date 2021-10-08 14:09:10*
%MOMM*%
%LPD*%
G01*
G04 APERTURE LIST*
%TA.AperFunction,ComponentPad*%
%ADD10O,1.600000X1.600000*%
%TD*%
%TA.AperFunction,ComponentPad*%
%ADD11C,1.600000*%
%TD*%
%TA.AperFunction,ComponentPad*%
%ADD12O,4.000000X2.500000*%
%TD*%
%TA.AperFunction,ComponentPad*%
%ADD13C,0.100000*%
%TD*%
%TA.AperFunction,ComponentPad*%
%ADD14R,1.800000X1.800000*%
%TD*%
%TA.AperFunction,ComponentPad*%
%ADD15C,1.800000*%
%TD*%
%TA.AperFunction,Conductor*%
%ADD16C,0.254000*%
%TD*%
%TA.AperFunction,Conductor*%
%ADD17C,0.250000*%
%TD*%
%TA.AperFunction,Conductor*%
%ADD18C,0.100000*%
%TD*%
G04 APERTURE END LIST*
D10*
%TO.P,R6,2*%
%TO.N,Net-(D6-Pad2)*%
X172720000Y-68580000D03*
D11*
%TO.P,R6,1*%
%TO.N,/LED*%
X162560000Y-68580000D03*
%TD*%
%TO.P,R5,2*%
%TO.N,Net-(D5-Pad2)*%
%TA.AperFunction,ComponentPad*%
G36*
G01*
X158318254Y-50917610D02*
X158318254Y-50917610D01*
G75*
G02*
X157987473Y-49835675I375577J706358D01*
G01*
X157987473Y-49835675D01*
G75*
G02*
X159069408Y-49504894I706358J-375577D01*
G01*
X159069408Y-49504894D01*
G75*
G02*
X159400189Y-50586829I-375577J-706358D01*
G01*
X159400189Y-50586829D01*
G75*
G02*
X158318254Y-50917610I-706358J375577D01*
G01*
G37*
%TD.AperFunction*%
%TO.P,R5,1*%
%TO.N,/LED*%
X153924000Y-59182000D03*
%TD*%
%TO.P,R4,2*%
%TO.N,Net-(D4-Pad2)*%
%TA.AperFunction,ComponentPad*%
G36*
G01*
X151316774Y-74956237D02*
X151316774Y-74956237D01*
G75*
G02*
X150401475Y-74291234I-125148J790151D01*
G01*
X150401475Y-74291234D01*
G75*
G02*
X151066478Y-73375935I790151J125148D01*
G01*
X151066478Y-73375935D01*
G75*
G02*
X151981777Y-74040938I125148J-790151D01*
G01*
X151981777Y-74040938D01*
G75*
G02*
X151316774Y-74956237I-790151J-125148D01*
G01*
G37*
%TD.AperFunction*%
%TO.P,R4,1*%
%TO.N,/LED*%
X152781000Y-84201000D03*
%TD*%
%TO.P,R3,2*%
%TO.N,Net-(D3-Pad2)*%
%TA.AperFunction,ComponentPad*%
G36*
G01*
X177324661Y-106047090D02*
X177324661Y-106047090D01*
G75*
G02*
X176643785Y-105143538I111338J792214D01*
G01*
X176643785Y-105143538D01*
G75*
G02*
X177547337Y-104462662I792214J-111338D01*
G01*
X177547337Y-104462662D01*
G75*
G02*
X178228213Y-105366214I-111338J-792214D01*
G01*
X178228213Y-105366214D01*
G75*
G02*
X177324661Y-106047090I-792214J111338D01*
G01*
G37*
%TD.AperFunction*%
%TO.P,R3,1*%
%TO.N,/LED*%
X176022000Y-115316000D03*
%TD*%
%TO.P,R2,2*%
%TO.N,Net-(D2-Pad2)*%
%TA.AperFunction,ComponentPad*%
G36*
G01*
X158020661Y-114551910D02*
X158020661Y-114551910D01*
G75*
G02*
X158924213Y-115232786I111338J-792214D01*
G01*
X158924213Y-115232786D01*
G75*
G02*
X158243337Y-116136338I-792214J-111338D01*
G01*
X158243337Y-116136338D01*
G75*
G02*
X157339785Y-115455462I-111338J792214D01*
G01*
X157339785Y-115455462D01*
G75*
G02*
X158020661Y-114551910I792214J111338D01*
G01*
G37*
%TD.AperFunction*%
%TO.P,R2,1*%
%TO.N,/LED*%
X156718000Y-105283000D03*
%TD*%
D10*
%TO.P,R1,2*%
%TO.N,Net-(D1-Pad2)*%
X162306000Y-99314000D03*
D11*
%TO.P,R1,1*%
%TO.N,/LED*%
X172466000Y-99314000D03*
%TD*%
D12*
%TO.P,BT1,1*%
%TO.N,VCC*%
X167640000Y-73533000D03*
X167640000Y-94615000D03*
%TD*%
%TA.AperFunction,ComponentPad*%
D13*
%TO.P,SW1,1*%
%TO.N,Net-(SW1-Pad1)*%
G36*
X175502148Y-53836334D02*
G01*
X177729664Y-52701358D01*
X178319852Y-53859666D01*
X176092336Y-54994642D01*
X175502148Y-53836334D01*
G37*
%TD.AperFunction*%
%TO.P,SW1,2*%
%TO.N,VCC*%
%TA.AperFunction,ComponentPad*%
G36*
G01*
X176989283Y-55323253D02*
X178058491Y-54778465D01*
G75*
G02*
X178932739Y-55062525I295094J-579154D01*
G01*
X178932739Y-55062525D01*
G75*
G02*
X178648679Y-55936773I-579154J-295094D01*
G01*
X177579471Y-56481561D01*
G75*
G02*
X176705223Y-56197501I-295094J579154D01*
G01*
X176705223Y-56197501D01*
G75*
G02*
X176989283Y-55323253I579154J295094D01*
G01*
G37*
%TD.AperFunction*%
%TO.P,SW1,3*%
%TO.N,/LED*%
%TA.AperFunction,ComponentPad*%
G36*
G01*
X177897264Y-57105266D02*
X178966472Y-56560478D01*
G75*
G02*
X179840720Y-56844538I295094J-579154D01*
G01*
X179840720Y-56844538D01*
G75*
G02*
X179556660Y-57718786I-579154J-295094D01*
G01*
X178487452Y-58263574D01*
G75*
G02*
X177613204Y-57979514I-295094J579154D01*
G01*
X177613204Y-57979514D01*
G75*
G02*
X177897264Y-57105266I579154J295094D01*
G01*
G37*
%TD.AperFunction*%
%TO.P,SW1,*%
%TO.N,*%
%TA.AperFunction,ComponentPad*%
G36*
G01*
X174813524Y-51493622D02*
X176239134Y-50767238D01*
G75*
G02*
X177516881Y-51182403I431291J-846456D01*
G01*
X177516881Y-51182403D01*
G75*
G02*
X177101716Y-52460150I-846456J-431291D01*
G01*
X175676106Y-53186534D01*
G75*
G02*
X174398359Y-52771369I-431291J846456D01*
G01*
X174398359Y-52771369D01*
G75*
G02*
X174813524Y-51493622I846456J431291D01*
G01*
G37*
%TD.AperFunction*%
%TA.AperFunction,ComponentPad*%
G36*
G01*
X178536246Y-58799876D02*
X179961856Y-58073492D01*
G75*
G02*
X181239603Y-58488657I431291J-846456D01*
G01*
X181239603Y-58488657D01*
G75*
G02*
X180824438Y-59766404I-846456J-431291D01*
G01*
X179398828Y-60492788D01*
G75*
G02*
X178121081Y-60077623I-431291J846456D01*
G01*
X178121081Y-60077623D01*
G75*
G02*
X178536246Y-58799876I846456J431291D01*
G01*
G37*
%TD.AperFunction*%
%TD*%
D14*
%TO.P,D6,1*%
%TO.N,GND*%
X183261000Y-67818000D03*
D15*
%TO.P,D6,2*%
%TO.N,Net-(D6-Pad2)*%
X183261000Y-70358000D03*
%TD*%
D14*
%TO.P,D5,1*%
%TO.N,GND*%
X168148000Y-49276000D03*
D15*
%TO.P,D5,2*%
%TO.N,Net-(D5-Pad2)*%
X165608000Y-49276000D03*
%TD*%
D14*
%TO.P,D4,1*%
%TO.N,GND*%
X150749000Y-67818000D03*
D15*
%TO.P,D4,2*%
%TO.N,Net-(D4-Pad2)*%
X150749000Y-70358000D03*
%TD*%
%TA.AperFunction,ComponentPad*%
D13*
%TO.P,D3,1*%
%TO.N,GND*%
G36*
X177450956Y-97001390D02*
G01*
X179223610Y-97313956D01*
X178911044Y-99086610D01*
X177138390Y-98774044D01*
X177450956Y-97001390D01*
G37*
%TD.AperFunction*%
D15*
%TO.P,D3,2*%
%TO.N,Net-(D3-Pad2)*%
X177739934Y-100545412D03*
%TD*%
D14*
%TO.P,D2,1*%
%TO.N,GND*%
X168148000Y-115062000D03*
D15*
%TO.P,D2,2*%
%TO.N,Net-(D2-Pad2)*%
X165608000Y-115062000D03*
%TD*%
%TA.AperFunction,ComponentPad*%
D13*
%TO.P,D1,1*%
%TO.N,GND*%
G36*
X154726324Y-97098544D02*
G01*
X156498978Y-96785978D01*
X156811544Y-98558632D01*
X155038890Y-98871198D01*
X154726324Y-97098544D01*
G37*
%TD.AperFunction*%
D15*
%TO.P,D1,2*%
%TO.N,Net-(D1-Pad2)*%
X156210000Y-100330000D03*
%TD*%
D16*
%TO.N,VCC*%
X167640000Y-73533000D02*
X161671000Y-73533000D01*
X161671000Y-73533000D02*
X156718000Y-78486000D01*
X156718000Y-78486000D02*
X156718000Y-89916000D01*
X161417000Y-94615000D02*
X167640000Y-94615000D01*
X156718000Y-89916000D02*
X161417000Y-94615000D01*
D17*
X167640000Y-65808994D02*
X167640000Y-73533000D01*
X177818981Y-55630013D02*
X167640000Y-65808994D01*
%TD*%
D16*
%TO.N,GND*%
X177398093Y-50201989D02*
X177162587Y-50098977D01*
X176857622Y-50032065D01*
X176545466Y-50025936D01*
X176238110Y-50080822D01*
X176020227Y-50166100D01*
X174455864Y-50963182D01*
X174258805Y-51089328D01*
X174033741Y-51305723D01*
X173855219Y-51561866D01*
X173730097Y-51847916D01*
X173663186Y-52152880D01*
X173657056Y-52465036D01*
X173711943Y-52772392D01*
X173825737Y-53063134D01*
X173994065Y-53326088D01*
X174210460Y-53551152D01*
X174466603Y-53729674D01*
X174752653Y-53854796D01*
X174866174Y-53879703D01*
X174866043Y-53886397D01*
X174888032Y-54009533D01*
X174933622Y-54126013D01*
X175523810Y-55284321D01*
X175591247Y-55389668D01*
X175677941Y-55479836D01*
X175780560Y-55551357D01*
X175895161Y-55601485D01*
X176017339Y-55628291D01*
X176028905Y-55628518D01*
X176002110Y-55750640D01*
X175997141Y-56003714D01*
X176041638Y-56252895D01*
X176064046Y-56310146D01*
X167129003Y-65245190D01*
X167099999Y-65268993D01*
X167044871Y-65336168D01*
X167005026Y-65384718D01*
X166999630Y-65394814D01*
X166934454Y-65516748D01*
X166890997Y-65660009D01*
X166880000Y-65771662D01*
X166880000Y-65771672D01*
X166876324Y-65808994D01*
X166880000Y-65846316D01*
X166880001Y-71648000D01*
X166797403Y-71648000D01*
X166520476Y-71675275D01*
X166165152Y-71783061D01*
X165837683Y-71958097D01*
X165550655Y-72193655D01*
X165315097Y-72480683D01*
X165159919Y-72771000D01*
X161708423Y-72771000D01*
X161671000Y-72767314D01*
X161633577Y-72771000D01*
X161633574Y-72771000D01*
X161521622Y-72782026D01*
X161377985Y-72825598D01*
X161316364Y-72858535D01*
X161245607Y-72896355D01*
X161162904Y-72964228D01*
X161129578Y-72991578D01*
X161105721Y-73020648D01*
X156205654Y-77920716D01*
X156176578Y-77944578D01*
X156120983Y-78012322D01*
X156081355Y-78060608D01*
X156043535Y-78131365D01*
X156010598Y-78192986D01*
X155967026Y-78336623D01*
X155956000Y-78448574D01*
X155952314Y-78486000D01*
X155956000Y-78523423D01*
X155956001Y-89878567D01*
X155952314Y-89916000D01*
X155967027Y-90065378D01*
X156010599Y-90209015D01*
X156081355Y-90341392D01*
X156152721Y-90428351D01*
X156176579Y-90457422D01*
X156205649Y-90481279D01*
X160851716Y-95127346D01*
X160875578Y-95156422D01*
X160949219Y-95216857D01*
X160991607Y-95251645D01*
X161062364Y-95289465D01*
X161123985Y-95322402D01*
X161267622Y-95365974D01*
X161379574Y-95377000D01*
X161379577Y-95377000D01*
X161417000Y-95380686D01*
X161454423Y-95377000D01*
X165159919Y-95377000D01*
X165315097Y-95667317D01*
X165550655Y-95954345D01*
X165837683Y-96189903D01*
X166165152Y-96364939D01*
X166520476Y-96472725D01*
X166797403Y-96500000D01*
X168482597Y-96500000D01*
X168759524Y-96472725D01*
X169114848Y-96364939D01*
X169442317Y-96189903D01*
X169729345Y-95954345D01*
X169964903Y-95667317D01*
X170139939Y-95339848D01*
X170247725Y-94984524D01*
X170284120Y-94615000D01*
X170247725Y-94245476D01*
X170139939Y-93890152D01*
X169964903Y-93562683D01*
X169729345Y-93275655D01*
X169442317Y-93040097D01*
X169114848Y-92865061D01*
X168759524Y-92757275D01*
X168482597Y-92730000D01*
X166797403Y-92730000D01*
X166520476Y-92757275D01*
X166165152Y-92865061D01*
X165837683Y-93040097D01*
X165550655Y-93275655D01*
X165315097Y-93562683D01*
X165159919Y-93853000D01*
X161732630Y-93853000D01*
X157480000Y-89600370D01*
X157480000Y-78801630D01*
X161986631Y-74295000D01*
X165159919Y-74295000D01*
X165315097Y-74585317D01*
X165550655Y-74872345D01*
X165837683Y-75107903D01*
X166165152Y-75282939D01*
X166520476Y-75390725D01*
X166797403Y-75418000D01*
X168482597Y-75418000D01*
X168759524Y-75390725D01*
X169114848Y-75282939D01*
X169442317Y-75107903D01*
X169729345Y-74872345D01*
X169964903Y-74585317D01*
X170139939Y-74257848D01*
X170247725Y-73902524D01*
X170284120Y-73533000D01*
X170247725Y-73163476D01*
X170139939Y-72808152D01*
X169964903Y-72480683D01*
X169729345Y-72193655D01*
X169442317Y-71958097D01*
X169114848Y-71783061D01*
X168759524Y-71675275D01*
X168482597Y-71648000D01*
X168400000Y-71648000D01*
X168400000Y-68438665D01*
X171285000Y-68438665D01*
X171285000Y-68721335D01*
X171340147Y-68998574D01*
X171448320Y-69259727D01*
X171605363Y-69494759D01*
X171805241Y-69694637D01*
X172040273Y-69851680D01*
X172301426Y-69959853D01*
X172578665Y-70015000D01*
X172861335Y-70015000D01*
X173138574Y-69959853D01*
X173399727Y-69851680D01*
X173634759Y-69694637D01*
X173834637Y-69494759D01*
X173991680Y-69259727D01*
X174099853Y-68998574D01*
X174155000Y-68721335D01*
X174155000Y-68438665D01*
X174099853Y-68161426D01*
X173991680Y-67900273D01*
X173834637Y-67665241D01*
X173634759Y-67465363D01*
X173399727Y-67308320D01*
X173138574Y-67200147D01*
X172861335Y-67145000D01*
X172578665Y-67145000D01*
X172301426Y-67200147D01*
X172040273Y-67308320D01*
X171805241Y-67465363D01*
X171605363Y-67665241D01*
X171448320Y-67900273D01*
X171340147Y-68161426D01*
X171285000Y-68438665D01*
X168400000Y-68438665D01*
X168400000Y-66918000D01*
X181722928Y-66918000D01*
X181726000Y-67532250D01*
X181884750Y-67691000D01*
X183134000Y-67691000D01*
X183134000Y-66441750D01*
X183388000Y-66441750D01*
X183388000Y-67691000D01*
X184637250Y-67691000D01*
X184796000Y-67532250D01*
X184799072Y-66918000D01*
X184786812Y-66793518D01*
X184750502Y-66673820D01*
X184691537Y-66563506D01*
X184612185Y-66466815D01*
X184515494Y-66387463D01*
X184405180Y-66328498D01*
X184285482Y-66292188D01*
X184161000Y-66279928D01*
X183546750Y-66283000D01*
X183388000Y-66441750D01*
X183134000Y-66441750D01*
X182975250Y-66283000D01*
X182361000Y-66279928D01*
X182236518Y-66292188D01*
X182116820Y-66328498D01*
X182006506Y-66387463D01*
X181909815Y-66466815D01*
X181830463Y-66563506D01*
X181771498Y-66673820D01*
X181735188Y-66793518D01*
X181722928Y-66918000D01*
X168400000Y-66918000D01*
X168400000Y-66123795D01*
X176908468Y-57615328D01*
X176905122Y-57785727D01*
X176949619Y-58034908D01*
X177041875Y-58270619D01*
X177178343Y-58483804D01*
X177353779Y-58666268D01*
X177561442Y-58811001D01*
X177604595Y-58829877D01*
X177577941Y-58868120D01*
X177452819Y-59154170D01*
X177385908Y-59459134D01*
X177379778Y-59771290D01*
X177434665Y-60078646D01*
X177548459Y-60369388D01*
X177716787Y-60632342D01*
X177933182Y-60857406D01*
X178189325Y-61035928D01*
X178475375Y-61161050D01*
X178780339Y-61227961D01*
X179092495Y-61234091D01*
X179399851Y-61179204D01*
X179617734Y-61093927D01*
X181182098Y-60296844D01*
X181379157Y-60170698D01*
X181604221Y-59954304D01*
X181782743Y-59698160D01*
X181907864Y-59412111D01*
X181936926Y-59279655D01*
X185369676Y-66145156D01*
X184752723Y-69989248D01*
X184737011Y-69910257D01*
X184621299Y-69630905D01*
X184453312Y-69379495D01*
X184386873Y-69313056D01*
X184405180Y-69307502D01*
X184515494Y-69248537D01*
X184612185Y-69169185D01*
X184691537Y-69072494D01*
X184750502Y-68962180D01*
X184786812Y-68842482D01*
X184799072Y-68718000D01*
X184796000Y-68103750D01*
X184637250Y-67945000D01*
X183388000Y-67945000D01*
X183388000Y-67965000D01*
X183134000Y-67965000D01*
X183134000Y-67945000D01*
X181884750Y-67945000D01*
X181726000Y-68103750D01*
X181722928Y-68718000D01*
X181735188Y-68842482D01*
X181771498Y-68962180D01*
X181830463Y-69072494D01*
X181909815Y-69169185D01*
X182006506Y-69248537D01*
X182116820Y-69307502D01*
X182135127Y-69313056D01*
X182068688Y-69379495D01*
X181900701Y-69630905D01*
X181784989Y-69910257D01*
X181726000Y-70206816D01*
X181726000Y-70509184D01*
X181784989Y-70805743D01*
X181900701Y-71085095D01*
X182068688Y-71336505D01*
X182282495Y-71550312D01*
X182533905Y-71718299D01*
X182813257Y-71834011D01*
X183109816Y-71893000D01*
X183412184Y-71893000D01*
X183708743Y-71834011D01*
X183988095Y-71718299D01*
X184239505Y-71550312D01*
X184453312Y-71336505D01*
X184562794Y-71172654D01*
X177457000Y-115447225D01*
X177457000Y-115174665D01*
X177401853Y-114897426D01*
X177293680Y-114636273D01*
X177136637Y-114401241D01*
X176936759Y-114201363D01*
X176701727Y-114044320D01*
X176440574Y-113936147D01*
X176163335Y-113881000D01*
X175880665Y-113881000D01*
X175603426Y-113936147D01*
X175342273Y-114044320D01*
X175107241Y-114201363D01*
X174907363Y-114401241D01*
X174750320Y-114636273D01*
X174642147Y-114897426D01*
X174587000Y-115174665D01*
X174587000Y-115457335D01*
X174642147Y-115734574D01*
X174750320Y-115995727D01*
X174907363Y-116230759D01*
X175107241Y-116430637D01*
X175342273Y-116587680D01*
X175603426Y-116695853D01*
X175880665Y-116751000D01*
X176163335Y-116751000D01*
X176440574Y-116695853D01*
X176701727Y-116587680D01*
X176936759Y-116430637D01*
X177136637Y-116230759D01*
X177293680Y-115995727D01*
X177401853Y-115734574D01*
X177448599Y-115499567D01*
X177237481Y-116815000D01*
X156772519Y-116815000D01*
X156513770Y-115202789D01*
X156696999Y-115202789D01*
X156696999Y-115485459D01*
X156752146Y-115762698D01*
X156860319Y-116023851D01*
X157017362Y-116258883D01*
X157217240Y-116458761D01*
X157452272Y-116615804D01*
X157713425Y-116723977D01*
X157990664Y-116779124D01*
X158273334Y-116779124D01*
X158550573Y-116723977D01*
X158811726Y-116615804D01*
X159046758Y-116458761D01*
X159246636Y-116258883D01*
X159403679Y-116023851D01*
X159511852Y-115762698D01*
X159566999Y-115485459D01*
X159566999Y-115202789D01*
X159511852Y-114925550D01*
X159505749Y-114910816D01*
X164073000Y-114910816D01*
X164073000Y-115213184D01*
X164131989Y-115509743D01*
X164247701Y-115789095D01*
X164415688Y-116040505D01*
X164629495Y-116254312D01*
X164880905Y-116422299D01*
X165160257Y-116538011D01*
X165456816Y-116597000D01*
X165759184Y-116597000D01*
X166055743Y-116538011D01*
X166335095Y-116422299D01*
X166586505Y-116254312D01*
X166652944Y-116187873D01*
X166658498Y-116206180D01*
X166717463Y-116316494D01*
X166796815Y-116413185D01*
X166893506Y-116492537D01*
X167003820Y-116551502D01*
X167123518Y-116587812D01*
X167248000Y-116600072D01*
X167862250Y-116597000D01*
X168021000Y-116438250D01*
X168021000Y-115189000D01*
X168275000Y-115189000D01*
X168275000Y-116438250D01*
X168433750Y-116597000D01*
X169048000Y-116600072D01*
X169172482Y-116587812D01*
X169292180Y-116551502D01*
X169402494Y-116492537D01*
X169499185Y-116413185D01*
X169578537Y-116316494D01*
X169637502Y-116206180D01*
X169673812Y-116086482D01*
X169686072Y-115962000D01*
X169683000Y-115347750D01*
X169524250Y-115189000D01*
X168275000Y-115189000D01*
X168021000Y-115189000D01*
X168001000Y-115189000D01*
X168001000Y-114935000D01*
X168021000Y-114935000D01*
X168021000Y-113685750D01*
X168275000Y-113685750D01*
X168275000Y-114935000D01*
X169524250Y-114935000D01*
X169683000Y-114776250D01*
X169686072Y-114162000D01*
X169673812Y-114037518D01*
X169637502Y-113917820D01*
X169578537Y-113807506D01*
X169499185Y-113710815D01*
X169402494Y-113631463D01*
X169292180Y-113572498D01*
X169172482Y-113536188D01*
X169048000Y-113523928D01*
X168433750Y-113527000D01*
X168275000Y-113685750D01*
X168021000Y-113685750D01*
X167862250Y-113527000D01*
X167248000Y-113523928D01*
X167123518Y-113536188D01*
X167003820Y-113572498D01*
X166893506Y-113631463D01*
X166796815Y-113710815D01*
X166717463Y-113807506D01*
X166658498Y-113917820D01*
X166652944Y-113936127D01*
X166586505Y-113869688D01*
X166335095Y-113701701D01*
X166055743Y-113585989D01*
X165759184Y-113527000D01*
X165456816Y-113527000D01*
X165160257Y-113585989D01*
X164880905Y-113701701D01*
X164629495Y-113869688D01*
X164415688Y-114083495D01*
X164247701Y-114334905D01*
X164131989Y-114614257D01*
X164073000Y-114910816D01*
X159505749Y-114910816D01*
X159403679Y-114664397D01*
X159246636Y-114429365D01*
X159046758Y-114229487D01*
X158811726Y-114072444D01*
X158550573Y-113964271D01*
X158273334Y-113909124D01*
X157990664Y-113909124D01*
X157713425Y-113964271D01*
X157452272Y-114072444D01*
X157217240Y-114229487D01*
X157017362Y-114429365D01*
X156860319Y-114664397D01*
X156752146Y-114925550D01*
X156696999Y-115202789D01*
X156513770Y-115202789D01*
X154899022Y-105141665D01*
X155283000Y-105141665D01*
X155283000Y-105424335D01*
X155338147Y-105701574D01*
X155446320Y-105962727D01*
X155603363Y-106197759D01*
X155803241Y-106397637D01*
X156038273Y-106554680D01*
X156299426Y-106662853D01*
X156576665Y-106718000D01*
X156859335Y-106718000D01*
X157136574Y-106662853D01*
X157397727Y-106554680D01*
X157632759Y-106397637D01*
X157832637Y-106197759D01*
X157989680Y-105962727D01*
X158097853Y-105701574D01*
X158153000Y-105424335D01*
X158153000Y-105141665D01*
X158147406Y-105113541D01*
X176000999Y-105113541D01*
X176000999Y-105396211D01*
X176056146Y-105673450D01*
X176164319Y-105934603D01*
X176321362Y-106169635D01*
X176521240Y-106369513D01*
X176756272Y-106526556D01*
X177017425Y-106634729D01*
X177294664Y-106689876D01*
X177577334Y-106689876D01*
X177854573Y-106634729D01*
X178115726Y-106526556D01*
X178350758Y-106369513D01*
X178550636Y-106169635D01*
X178707679Y-105934603D01*
X178815852Y-105673450D01*
X178870999Y-105396211D01*
X178870999Y-105113541D01*
X178815852Y-104836302D01*
X178707679Y-104575149D01*
X178550636Y-104340117D01*
X178350758Y-104140239D01*
X178115726Y-103983196D01*
X177854573Y-103875023D01*
X177577334Y-103819876D01*
X177294664Y-103819876D01*
X177017425Y-103875023D01*
X176756272Y-103983196D01*
X176521240Y-104140239D01*
X176321362Y-104340117D01*
X176164319Y-104575149D01*
X176056146Y-104836302D01*
X176000999Y-105113541D01*
X158147406Y-105113541D01*
X158097853Y-104864426D01*
X157989680Y-104603273D01*
X157832637Y-104368241D01*
X157632759Y-104168363D01*
X157397727Y-104011320D01*
X157136574Y-103903147D01*
X156859335Y-103848000D01*
X156576665Y-103848000D01*
X156299426Y-103903147D01*
X156038273Y-104011320D01*
X155803241Y-104168363D01*
X155603363Y-104368241D01*
X155446320Y-104603273D01*
X155338147Y-104864426D01*
X155283000Y-105141665D01*
X154899022Y-105141665D01*
X153813263Y-98376547D01*
X154306874Y-98376547D01*
X154410512Y-98981998D01*
X154444202Y-99102460D01*
X154500746Y-99214035D01*
X154577971Y-99312434D01*
X154672907Y-99393876D01*
X154781909Y-99455233D01*
X154900786Y-99494146D01*
X154920762Y-99496555D01*
X154849701Y-99602905D01*
X154733989Y-99882257D01*
X154675000Y-100178816D01*
X154675000Y-100481184D01*
X154733989Y-100777743D01*
X154849701Y-101057095D01*
X155017688Y-101308505D01*
X155231495Y-101522312D01*
X155482905Y-101690299D01*
X155762257Y-101806011D01*
X156058816Y-101865000D01*
X156361184Y-101865000D01*
X156657743Y-101806011D01*
X156937095Y-101690299D01*
X157188505Y-101522312D01*
X157402312Y-101308505D01*
X157570299Y-101057095D01*
X157686011Y-100777743D01*
X157745000Y-100481184D01*
X157745000Y-100178816D01*
X157686011Y-99882257D01*
X157570299Y-99602905D01*
X157402312Y-99351495D01*
X157223482Y-99172665D01*
X160871000Y-99172665D01*
X160871000Y-99455335D01*
X160926147Y-99732574D01*
X161034320Y-99993727D01*
X161191363Y-100228759D01*
X161391241Y-100428637D01*
X161626273Y-100585680D01*
X161887426Y-100693853D01*
X162164665Y-100749000D01*
X162447335Y-100749000D01*
X162724574Y-100693853D01*
X162985727Y-100585680D01*
X163220759Y-100428637D01*
X163420637Y-100228759D01*
X163577680Y-99993727D01*
X163685853Y-99732574D01*
X163741000Y-99455335D01*
X163741000Y-99172665D01*
X171031000Y-99172665D01*
X171031000Y-99455335D01*
X171086147Y-99732574D01*
X171194320Y-99993727D01*
X171351363Y-100228759D01*
X171551241Y-100428637D01*
X171786273Y-100585680D01*
X172047426Y-100693853D01*
X172324665Y-100749000D01*
X172607335Y-100749000D01*
X172884574Y-100693853D01*
X173145727Y-100585680D01*
X173380759Y-100428637D01*
X173415168Y-100394228D01*
X176204934Y-100394228D01*
X176204934Y-100696596D01*
X176263923Y-100993155D01*
X176379635Y-101272507D01*
X176547622Y-101523917D01*
X176761429Y-101737724D01*
X177012839Y-101905711D01*
X177292191Y-102021423D01*
X177588750Y-102080412D01*
X177891118Y-102080412D01*
X178187677Y-102021423D01*
X178467029Y-101905711D01*
X178718439Y-101737724D01*
X178932246Y-101523917D01*
X179100233Y-101272507D01*
X179215945Y-100993155D01*
X179274934Y-100696596D01*
X179274934Y-100394228D01*
X179215945Y-100097669D01*
X179100233Y-99818317D01*
X179029172Y-99711967D01*
X179049148Y-99709558D01*
X179168025Y-99670645D01*
X179277027Y-99609288D01*
X179371963Y-99527846D01*
X179449188Y-99429447D01*
X179505732Y-99317872D01*
X179539422Y-99197410D01*
X179643060Y-98591959D01*
X179514288Y-98408054D01*
X178284017Y-98191124D01*
X178280544Y-98210820D01*
X178030403Y-98166713D01*
X178033876Y-98147017D01*
X176865400Y-97940983D01*
X178328124Y-97940983D01*
X179558395Y-98157913D01*
X179742300Y-98029141D01*
X179851989Y-97424756D01*
X179861531Y-97300037D01*
X179846558Y-97175852D01*
X179807645Y-97056975D01*
X179746288Y-96947973D01*
X179664846Y-96853037D01*
X179566447Y-96775812D01*
X179454872Y-96719268D01*
X179334410Y-96685578D01*
X178728959Y-96581940D01*
X178545054Y-96710712D01*
X178328124Y-97940983D01*
X176865400Y-97940983D01*
X176803605Y-97930087D01*
X176619700Y-98058859D01*
X176510011Y-98663244D01*
X176500469Y-98787963D01*
X176515442Y-98912148D01*
X176554355Y-99031025D01*
X176615712Y-99140027D01*
X176697154Y-99234963D01*
X176795553Y-99312188D01*
X176810967Y-99320000D01*
X176761429Y-99353100D01*
X176547622Y-99566907D01*
X176379635Y-99818317D01*
X176263923Y-100097669D01*
X176204934Y-100394228D01*
X173415168Y-100394228D01*
X173580637Y-100228759D01*
X173737680Y-99993727D01*
X173845853Y-99732574D01*
X173901000Y-99455335D01*
X173901000Y-99172665D01*
X173845853Y-98895426D01*
X173737680Y-98634273D01*
X173580637Y-98399241D01*
X173380759Y-98199363D01*
X173145727Y-98042320D01*
X172884574Y-97934147D01*
X172607335Y-97879000D01*
X172324665Y-97879000D01*
X172047426Y-97934147D01*
X171786273Y-98042320D01*
X171551241Y-98199363D01*
X171351363Y-98399241D01*
X171194320Y-98634273D01*
X171086147Y-98895426D01*
X171031000Y-99172665D01*
X163741000Y-99172665D01*
X163685853Y-98895426D01*
X163577680Y-98634273D01*
X163420637Y-98399241D01*
X163220759Y-98199363D01*
X162985727Y-98042320D01*
X162724574Y-97934147D01*
X162447335Y-97879000D01*
X162164665Y-97879000D01*
X161887426Y-97934147D01*
X161626273Y-98042320D01*
X161391241Y-98199363D01*
X161191363Y-98399241D01*
X161034320Y-98634273D01*
X160926147Y-98895426D01*
X160871000Y-99172665D01*
X157223482Y-99172665D01*
X157188505Y-99137688D01*
X157138967Y-99104588D01*
X157154381Y-99096776D01*
X157252780Y-99019551D01*
X157334222Y-98924615D01*
X157395579Y-98815613D01*
X157434492Y-98696736D01*
X157449465Y-98572551D01*
X157439923Y-98447832D01*
X157330234Y-97843447D01*
X157146329Y-97714675D01*
X155916058Y-97931605D01*
X155919531Y-97951301D01*
X155669390Y-97995408D01*
X155665917Y-97975712D01*
X154435646Y-98192642D01*
X154306874Y-98376547D01*
X153813263Y-98376547D01*
X153605917Y-97084625D01*
X154088403Y-97084625D01*
X154097945Y-97209344D01*
X154207634Y-97813729D01*
X154391539Y-97942501D01*
X155621810Y-97725571D01*
X155404880Y-96495300D01*
X155341889Y-96451193D01*
X155655021Y-96451193D01*
X155871951Y-97681464D01*
X156923536Y-97496041D01*
X176718940Y-97496041D01*
X176847712Y-97679946D01*
X178077983Y-97896876D01*
X178294913Y-96666605D01*
X178166141Y-96482700D01*
X177561756Y-96373011D01*
X177437037Y-96363469D01*
X177312852Y-96378442D01*
X177193975Y-96417355D01*
X177084973Y-96478712D01*
X176990037Y-96560154D01*
X176912812Y-96658553D01*
X176856268Y-96770128D01*
X176822578Y-96890590D01*
X176718940Y-97496041D01*
X156923536Y-97496041D01*
X157102222Y-97464534D01*
X157230994Y-97280629D01*
X157127356Y-96675178D01*
X157093666Y-96554716D01*
X157037122Y-96443141D01*
X156959897Y-96344742D01*
X156864961Y-96263300D01*
X156755959Y-96201943D01*
X156637082Y-96163030D01*
X156512897Y-96148057D01*
X156388178Y-96157599D01*
X155783793Y-96267288D01*
X155655021Y-96451193D01*
X155341889Y-96451193D01*
X155220975Y-96366528D01*
X154615524Y-96470166D01*
X154495062Y-96503856D01*
X154383487Y-96560400D01*
X154285088Y-96637625D01*
X154203646Y-96732561D01*
X154142289Y-96841563D01*
X154103376Y-96960440D01*
X154088403Y-97084625D01*
X153605917Y-97084625D01*
X151688548Y-85137944D01*
X151866241Y-85315637D01*
X152101273Y-85472680D01*
X152362426Y-85580853D01*
X152639665Y-85636000D01*
X152922335Y-85636000D01*
X153199574Y-85580853D01*
X153460727Y-85472680D01*
X153695759Y-85315637D01*
X153895637Y-85115759D01*
X154052680Y-84880727D01*
X154160853Y-84619574D01*
X154216000Y-84342335D01*
X154216000Y-84059665D01*
X154160853Y-83782426D01*
X154052680Y-83521273D01*
X153895637Y-83286241D01*
X153695759Y-83086363D01*
X153460727Y-82929320D01*
X153199574Y-82821147D01*
X152922335Y-82766000D01*
X152639665Y-82766000D01*
X152362426Y-82821147D01*
X152101273Y-82929320D01*
X151866241Y-83086363D01*
X151666363Y-83286241D01*
X151509320Y-83521273D01*
X151451489Y-83660888D01*
X150073641Y-75075835D01*
X150076989Y-75080845D01*
X150276867Y-75280723D01*
X150511899Y-75437766D01*
X150773052Y-75545939D01*
X151050291Y-75601086D01*
X151332961Y-75601086D01*
X151610200Y-75545939D01*
X151871353Y-75437766D01*
X152106385Y-75280723D01*
X152306263Y-75080845D01*
X152463306Y-74845813D01*
X152571479Y-74584660D01*
X152626626Y-74307421D01*
X152626626Y-74024751D01*
X152571479Y-73747512D01*
X152463306Y-73486359D01*
X152306263Y-73251327D01*
X152106385Y-73051449D01*
X151871353Y-72894406D01*
X151610200Y-72786233D01*
X151332961Y-72731086D01*
X151050291Y-72731086D01*
X150773052Y-72786233D01*
X150511899Y-72894406D01*
X150276867Y-73051449D01*
X150076989Y-73251327D01*
X149919946Y-73486359D01*
X149846859Y-73662807D01*
X149447205Y-71172652D01*
X149556688Y-71336505D01*
X149770495Y-71550312D01*
X150021905Y-71718299D01*
X150301257Y-71834011D01*
X150597816Y-71893000D01*
X150900184Y-71893000D01*
X151196743Y-71834011D01*
X151476095Y-71718299D01*
X151727505Y-71550312D01*
X151941312Y-71336505D01*
X152109299Y-71085095D01*
X152225011Y-70805743D01*
X152284000Y-70509184D01*
X152284000Y-70206816D01*
X152225011Y-69910257D01*
X152109299Y-69630905D01*
X151941312Y-69379495D01*
X151874873Y-69313056D01*
X151893180Y-69307502D01*
X152003494Y-69248537D01*
X152100185Y-69169185D01*
X152179537Y-69072494D01*
X152238502Y-68962180D01*
X152274812Y-68842482D01*
X152287072Y-68718000D01*
X152285675Y-68438665D01*
X161125000Y-68438665D01*
X161125000Y-68721335D01*
X161180147Y-68998574D01*
X161288320Y-69259727D01*
X161445363Y-69494759D01*
X161645241Y-69694637D01*
X161880273Y-69851680D01*
X162141426Y-69959853D01*
X162418665Y-70015000D01*
X162701335Y-70015000D01*
X162978574Y-69959853D01*
X163239727Y-69851680D01*
X163474759Y-69694637D01*
X163674637Y-69494759D01*
X163831680Y-69259727D01*
X163939853Y-68998574D01*
X163995000Y-68721335D01*
X163995000Y-68438665D01*
X163939853Y-68161426D01*
X163831680Y-67900273D01*
X163674637Y-67665241D01*
X163474759Y-67465363D01*
X163239727Y-67308320D01*
X162978574Y-67200147D01*
X162701335Y-67145000D01*
X162418665Y-67145000D01*
X162141426Y-67200147D01*
X161880273Y-67308320D01*
X161645241Y-67465363D01*
X161445363Y-67665241D01*
X161288320Y-67900273D01*
X161180147Y-68161426D01*
X161125000Y-68438665D01*
X152285675Y-68438665D01*
X152284000Y-68103750D01*
X152125250Y-67945000D01*
X150876000Y-67945000D01*
X150876000Y-67965000D01*
X150622000Y-67965000D01*
X150622000Y-67945000D01*
X149372750Y-67945000D01*
X149214000Y-68103750D01*
X149210928Y-68718000D01*
X149223188Y-68842482D01*
X149259498Y-68962180D01*
X149318463Y-69072494D01*
X149397815Y-69169185D01*
X149494506Y-69248537D01*
X149604820Y-69307502D01*
X149623127Y-69313056D01*
X149556688Y-69379495D01*
X149388701Y-69630905D01*
X149272989Y-69910257D01*
X149257276Y-69989251D01*
X148764360Y-66918000D01*
X149210928Y-66918000D01*
X149214000Y-67532250D01*
X149372750Y-67691000D01*
X150622000Y-67691000D01*
X150622000Y-66441750D01*
X150876000Y-66441750D01*
X150876000Y-67691000D01*
X152125250Y-67691000D01*
X152284000Y-67532250D01*
X152287072Y-66918000D01*
X152274812Y-66793518D01*
X152238502Y-66673820D01*
X152179537Y-66563506D01*
X152100185Y-66466815D01*
X152003494Y-66387463D01*
X151893180Y-66328498D01*
X151773482Y-66292188D01*
X151649000Y-66279928D01*
X151034750Y-66283000D01*
X150876000Y-66441750D01*
X150622000Y-66441750D01*
X150463250Y-66283000D01*
X149849000Y-66279928D01*
X149724518Y-66292188D01*
X149604820Y-66328498D01*
X149494506Y-66387463D01*
X149397815Y-66466815D01*
X149318463Y-66563506D01*
X149259498Y-66673820D01*
X149223188Y-66793518D01*
X149210928Y-66918000D01*
X148764360Y-66918000D01*
X148640323Y-66145157D01*
X152192569Y-59040665D01*
X152489000Y-59040665D01*
X152489000Y-59323335D01*
X152544147Y-59600574D01*
X152652320Y-59861727D01*
X152809363Y-60096759D01*
X153009241Y-60296637D01*
X153244273Y-60453680D01*
X153505426Y-60561853D01*
X153782665Y-60617000D01*
X154065335Y-60617000D01*
X154342574Y-60561853D01*
X154603727Y-60453680D01*
X154838759Y-60296637D01*
X155038637Y-60096759D01*
X155195680Y-59861727D01*
X155303853Y-59600574D01*
X155359000Y-59323335D01*
X155359000Y-59040665D01*
X155303853Y-58763426D01*
X155195680Y-58502273D01*
X155038637Y-58267241D01*
X154838759Y-58067363D01*
X154603727Y-57910320D01*
X154342574Y-57802147D01*
X154065335Y-57747000D01*
X153782665Y-57747000D01*
X153505426Y-57802147D01*
X153244273Y-57910320D01*
X153009241Y-58067363D01*
X152809363Y-58267241D01*
X152652320Y-58502273D01*
X152544147Y-58763426D01*
X152489000Y-59040665D01*
X152192569Y-59040665D01*
X156677943Y-50069917D01*
X157258831Y-50069917D01*
X157258831Y-50352587D01*
X157313978Y-50629826D01*
X157422151Y-50890979D01*
X157579194Y-51126011D01*
X157779072Y-51325889D01*
X158014104Y-51482932D01*
X158275257Y-51591105D01*
X158552496Y-51646252D01*
X158835166Y-51646252D01*
X159112405Y-51591105D01*
X159373558Y-51482932D01*
X159608590Y-51325889D01*
X159808468Y-51126011D01*
X159965511Y-50890979D01*
X160073684Y-50629826D01*
X160128831Y-50352587D01*
X160128831Y-50069917D01*
X160073684Y-49792678D01*
X159965511Y-49531525D01*
X159808468Y-49296493D01*
X159636791Y-49124816D01*
X164073000Y-49124816D01*
X164073000Y-49427184D01*
X164131989Y-49723743D01*
X164247701Y-50003095D01*
X164415688Y-50254505D01*
X164629495Y-50468312D01*
X164880905Y-50636299D01*
X165160257Y-50752011D01*
X165456816Y-50811000D01*
X165759184Y-50811000D01*
X166055743Y-50752011D01*
X166335095Y-50636299D01*
X166586505Y-50468312D01*
X166652944Y-50401873D01*
X166658498Y-50420180D01*
X166717463Y-50530494D01*
X166796815Y-50627185D01*
X166893506Y-50706537D01*
X167003820Y-50765502D01*
X167123518Y-50801812D01*
X167248000Y-50814072D01*
X167862250Y-50811000D01*
X168021000Y-50652250D01*
X168021000Y-49403000D01*
X168275000Y-49403000D01*
X168275000Y-50652250D01*
X168433750Y-50811000D01*
X169048000Y-50814072D01*
X169172482Y-50801812D01*
X169292180Y-50765502D01*
X169402494Y-50706537D01*
X169499185Y-50627185D01*
X169578537Y-50530494D01*
X169637502Y-50420180D01*
X169673812Y-50300482D01*
X169686072Y-50176000D01*
X169683000Y-49561750D01*
X169524250Y-49403000D01*
X168275000Y-49403000D01*
X168021000Y-49403000D01*
X168001000Y-49403000D01*
X168001000Y-49149000D01*
X168021000Y-49149000D01*
X168021000Y-47899750D01*
X168275000Y-47899750D01*
X168275000Y-49149000D01*
X169524250Y-49149000D01*
X169683000Y-48990250D01*
X169686072Y-48376000D01*
X169673812Y-48251518D01*
X169637502Y-48131820D01*
X169578537Y-48021506D01*
X169499185Y-47924815D01*
X169402494Y-47845463D01*
X169292180Y-47786498D01*
X169172482Y-47750188D01*
X169048000Y-47737928D01*
X168433750Y-47741000D01*
X168275000Y-47899750D01*
X168021000Y-47899750D01*
X167862250Y-47741000D01*
X167248000Y-47737928D01*
X167123518Y-47750188D01*
X167003820Y-47786498D01*
X166893506Y-47845463D01*
X166796815Y-47924815D01*
X166717463Y-48021506D01*
X166658498Y-48131820D01*
X166652944Y-48150127D01*
X166586505Y-48083688D01*
X166335095Y-47915701D01*
X166055743Y-47799989D01*
X165759184Y-47741000D01*
X165456816Y-47741000D01*
X165160257Y-47799989D01*
X164880905Y-47915701D01*
X164629495Y-48083688D01*
X164415688Y-48297495D01*
X164247701Y-48548905D01*
X164131989Y-48828257D01*
X164073000Y-49124816D01*
X159636791Y-49124816D01*
X159608590Y-49096615D01*
X159373558Y-48939572D01*
X159112405Y-48831399D01*
X158835166Y-48776252D01*
X158552496Y-48776252D01*
X158275257Y-48831399D01*
X158014104Y-48939572D01*
X157779072Y-49096615D01*
X157579194Y-49296493D01*
X157422151Y-49531525D01*
X157313978Y-49792678D01*
X157258831Y-50069917D01*
X156677943Y-50069917D01*
X157887902Y-47650000D01*
X176122098Y-47650000D01*
X177398093Y-50201989D01*
%TA.AperFunction,Conductor*%
D18*
G36*
X177398093Y-50201989D02*
G01*
X177162587Y-50098977D01*
X176857622Y-50032065D01*
X176545466Y-50025936D01*
X176238110Y-50080822D01*
X176020227Y-50166100D01*
X174455864Y-50963182D01*
X174258805Y-51089328D01*
X174033741Y-51305723D01*
X173855219Y-51561866D01*
X173730097Y-51847916D01*
X173663186Y-52152880D01*
X173657056Y-52465036D01*
X173711943Y-52772392D01*
X173825737Y-53063134D01*
X173994065Y-53326088D01*
X174210460Y-53551152D01*
X174466603Y-53729674D01*
X174752653Y-53854796D01*
X174866174Y-53879703D01*
X174866043Y-53886397D01*
X174888032Y-54009533D01*
X174933622Y-54126013D01*
X175523810Y-55284321D01*
X175591247Y-55389668D01*
X175677941Y-55479836D01*
X175780560Y-55551357D01*
X175895161Y-55601485D01*
X176017339Y-55628291D01*
X176028905Y-55628518D01*
X176002110Y-55750640D01*
X175997141Y-56003714D01*
X176041638Y-56252895D01*
X176064046Y-56310146D01*
X167129003Y-65245190D01*
X167099999Y-65268993D01*
X167044871Y-65336168D01*
X167005026Y-65384718D01*
X166999630Y-65394814D01*
X166934454Y-65516748D01*
X166890997Y-65660009D01*
X166880000Y-65771662D01*
X166880000Y-65771672D01*
X166876324Y-65808994D01*
X166880000Y-65846316D01*
X166880001Y-71648000D01*
X166797403Y-71648000D01*
X166520476Y-71675275D01*
X166165152Y-71783061D01*
X165837683Y-71958097D01*
X165550655Y-72193655D01*
X165315097Y-72480683D01*
X165159919Y-72771000D01*
X161708423Y-72771000D01*
X161671000Y-72767314D01*
X161633577Y-72771000D01*
X161633574Y-72771000D01*
X161521622Y-72782026D01*
X161377985Y-72825598D01*
X161316364Y-72858535D01*
X161245607Y-72896355D01*
X161162904Y-72964228D01*
X161129578Y-72991578D01*
X161105721Y-73020648D01*
X156205654Y-77920716D01*
X156176578Y-77944578D01*
X156120983Y-78012322D01*
X156081355Y-78060608D01*
X156043535Y-78131365D01*
X156010598Y-78192986D01*
X155967026Y-78336623D01*
X155956000Y-78448574D01*
X155952314Y-78486000D01*
X155956000Y-78523423D01*
X155956001Y-89878567D01*
X155952314Y-89916000D01*
X155967027Y-90065378D01*
X156010599Y-90209015D01*
X156081355Y-90341392D01*
X156152721Y-90428351D01*
X156176579Y-90457422D01*
X156205649Y-90481279D01*
X160851716Y-95127346D01*
X160875578Y-95156422D01*
X160949219Y-95216857D01*
X160991607Y-95251645D01*
X161062364Y-95289465D01*
X161123985Y-95322402D01*
X161267622Y-95365974D01*
X161379574Y-95377000D01*
X161379577Y-95377000D01*
X161417000Y-95380686D01*
X161454423Y-95377000D01*
X165159919Y-95377000D01*
X165315097Y-95667317D01*
X165550655Y-95954345D01*
X165837683Y-96189903D01*
X166165152Y-96364939D01*
X166520476Y-96472725D01*
X166797403Y-96500000D01*
X168482597Y-96500000D01*
X168759524Y-96472725D01*
X169114848Y-96364939D01*
X169442317Y-96189903D01*
X169729345Y-95954345D01*
X169964903Y-95667317D01*
X170139939Y-95339848D01*
X170247725Y-94984524D01*
X170284120Y-94615000D01*
X170247725Y-94245476D01*
X170139939Y-93890152D01*
X169964903Y-93562683D01*
X169729345Y-93275655D01*
X169442317Y-93040097D01*
X169114848Y-92865061D01*
X168759524Y-92757275D01*
X168482597Y-92730000D01*
X166797403Y-92730000D01*
X166520476Y-92757275D01*
X166165152Y-92865061D01*
X165837683Y-93040097D01*
X165550655Y-93275655D01*
X165315097Y-93562683D01*
X165159919Y-93853000D01*
X161732630Y-93853000D01*
X157480000Y-89600370D01*
X157480000Y-78801630D01*
X161986631Y-74295000D01*
X165159919Y-74295000D01*
X165315097Y-74585317D01*
X165550655Y-74872345D01*
X165837683Y-75107903D01*
X166165152Y-75282939D01*
X166520476Y-75390725D01*
X166797403Y-75418000D01*
X168482597Y-75418000D01*
X168759524Y-75390725D01*
X169114848Y-75282939D01*
X169442317Y-75107903D01*
X169729345Y-74872345D01*
X169964903Y-74585317D01*
X170139939Y-74257848D01*
X170247725Y-73902524D01*
X170284120Y-73533000D01*
X170247725Y-73163476D01*
X170139939Y-72808152D01*
X169964903Y-72480683D01*
X169729345Y-72193655D01*
X169442317Y-71958097D01*
X169114848Y-71783061D01*
X168759524Y-71675275D01*
X168482597Y-71648000D01*
X168400000Y-71648000D01*
X168400000Y-68438665D01*
X171285000Y-68438665D01*
X171285000Y-68721335D01*
X171340147Y-68998574D01*
X171448320Y-69259727D01*
X171605363Y-69494759D01*
X171805241Y-69694637D01*
X172040273Y-69851680D01*
X172301426Y-69959853D01*
X172578665Y-70015000D01*
X172861335Y-70015000D01*
X173138574Y-69959853D01*
X173399727Y-69851680D01*
X173634759Y-69694637D01*
X173834637Y-69494759D01*
X173991680Y-69259727D01*
X174099853Y-68998574D01*
X174155000Y-68721335D01*
X174155000Y-68438665D01*
X174099853Y-68161426D01*
X173991680Y-67900273D01*
X173834637Y-67665241D01*
X173634759Y-67465363D01*
X173399727Y-67308320D01*
X173138574Y-67200147D01*
X172861335Y-67145000D01*
X172578665Y-67145000D01*
X172301426Y-67200147D01*
X172040273Y-67308320D01*
X171805241Y-67465363D01*
X171605363Y-67665241D01*
X171448320Y-67900273D01*
X171340147Y-68161426D01*
X171285000Y-68438665D01*
X168400000Y-68438665D01*
X168400000Y-66918000D01*
X181722928Y-66918000D01*
X181726000Y-67532250D01*
X181884750Y-67691000D01*
X183134000Y-67691000D01*
X183134000Y-66441750D01*
X183388000Y-66441750D01*
X183388000Y-67691000D01*
X184637250Y-67691000D01*
X184796000Y-67532250D01*
X184799072Y-66918000D01*
X184786812Y-66793518D01*
X184750502Y-66673820D01*
X184691537Y-66563506D01*
X184612185Y-66466815D01*
X184515494Y-66387463D01*
X184405180Y-66328498D01*
X184285482Y-66292188D01*
X184161000Y-66279928D01*
X183546750Y-66283000D01*
X183388000Y-66441750D01*
X183134000Y-66441750D01*
X182975250Y-66283000D01*
X182361000Y-66279928D01*
X182236518Y-66292188D01*
X182116820Y-66328498D01*
X182006506Y-66387463D01*
X181909815Y-66466815D01*
X181830463Y-66563506D01*
X181771498Y-66673820D01*
X181735188Y-66793518D01*
X181722928Y-66918000D01*
X168400000Y-66918000D01*
X168400000Y-66123795D01*
X176908468Y-57615328D01*
X176905122Y-57785727D01*
X176949619Y-58034908D01*
X177041875Y-58270619D01*
X177178343Y-58483804D01*
X177353779Y-58666268D01*
X177561442Y-58811001D01*
X177604595Y-58829877D01*
X177577941Y-58868120D01*
X177452819Y-59154170D01*
X177385908Y-59459134D01*
X177379778Y-59771290D01*
X177434665Y-60078646D01*
X177548459Y-60369388D01*
X177716787Y-60632342D01*
X177933182Y-60857406D01*
X178189325Y-61035928D01*
X178475375Y-61161050D01*
X178780339Y-61227961D01*
X179092495Y-61234091D01*
X179399851Y-61179204D01*
X179617734Y-61093927D01*
X181182098Y-60296844D01*
X181379157Y-60170698D01*
X181604221Y-59954304D01*
X181782743Y-59698160D01*
X181907864Y-59412111D01*
X181936926Y-59279655D01*
X185369676Y-66145156D01*
X184752723Y-69989248D01*
X184737011Y-69910257D01*
X184621299Y-69630905D01*
X184453312Y-69379495D01*
X184386873Y-69313056D01*
X184405180Y-69307502D01*
X184515494Y-69248537D01*
X184612185Y-69169185D01*
X184691537Y-69072494D01*
X184750502Y-68962180D01*
X184786812Y-68842482D01*
X184799072Y-68718000D01*
X184796000Y-68103750D01*
X184637250Y-67945000D01*
X183388000Y-67945000D01*
X183388000Y-67965000D01*
X183134000Y-67965000D01*
X183134000Y-67945000D01*
X181884750Y-67945000D01*
X181726000Y-68103750D01*
X181722928Y-68718000D01*
X181735188Y-68842482D01*
X181771498Y-68962180D01*
X181830463Y-69072494D01*
X181909815Y-69169185D01*
X182006506Y-69248537D01*
X182116820Y-69307502D01*
X182135127Y-69313056D01*
X182068688Y-69379495D01*
X181900701Y-69630905D01*
X181784989Y-69910257D01*
X181726000Y-70206816D01*
X181726000Y-70509184D01*
X181784989Y-70805743D01*
X181900701Y-71085095D01*
X182068688Y-71336505D01*
X182282495Y-71550312D01*
X182533905Y-71718299D01*
X182813257Y-71834011D01*
X183109816Y-71893000D01*
X183412184Y-71893000D01*
X183708743Y-71834011D01*
X183988095Y-71718299D01*
X184239505Y-71550312D01*
X184453312Y-71336505D01*
X184562794Y-71172654D01*
X177457000Y-115447225D01*
X177457000Y-115174665D01*
X177401853Y-114897426D01*
X177293680Y-114636273D01*
X177136637Y-114401241D01*
X176936759Y-114201363D01*
X176701727Y-114044320D01*
X176440574Y-113936147D01*
X176163335Y-113881000D01*
X175880665Y-113881000D01*
X175603426Y-113936147D01*
X175342273Y-114044320D01*
X175107241Y-114201363D01*
X174907363Y-114401241D01*
X174750320Y-114636273D01*
X174642147Y-114897426D01*
X174587000Y-115174665D01*
X174587000Y-115457335D01*
X174642147Y-115734574D01*
X174750320Y-115995727D01*
X174907363Y-116230759D01*
X175107241Y-116430637D01*
X175342273Y-116587680D01*
X175603426Y-116695853D01*
X175880665Y-116751000D01*
X176163335Y-116751000D01*
X176440574Y-116695853D01*
X176701727Y-116587680D01*
X176936759Y-116430637D01*
X177136637Y-116230759D01*
X177293680Y-115995727D01*
X177401853Y-115734574D01*
X177448599Y-115499567D01*
X177237481Y-116815000D01*
X156772519Y-116815000D01*
X156513770Y-115202789D01*
X156696999Y-115202789D01*
X156696999Y-115485459D01*
X156752146Y-115762698D01*
X156860319Y-116023851D01*
X157017362Y-116258883D01*
X157217240Y-116458761D01*
X157452272Y-116615804D01*
X157713425Y-116723977D01*
X157990664Y-116779124D01*
X158273334Y-116779124D01*
X158550573Y-116723977D01*
X158811726Y-116615804D01*
X159046758Y-116458761D01*
X159246636Y-116258883D01*
X159403679Y-116023851D01*
X159511852Y-115762698D01*
X159566999Y-115485459D01*
X159566999Y-115202789D01*
X159511852Y-114925550D01*
X159505749Y-114910816D01*
X164073000Y-114910816D01*
X164073000Y-115213184D01*
X164131989Y-115509743D01*
X164247701Y-115789095D01*
X164415688Y-116040505D01*
X164629495Y-116254312D01*
X164880905Y-116422299D01*
X165160257Y-116538011D01*
X165456816Y-116597000D01*
X165759184Y-116597000D01*
X166055743Y-116538011D01*
X166335095Y-116422299D01*
X166586505Y-116254312D01*
X166652944Y-116187873D01*
X166658498Y-116206180D01*
X166717463Y-116316494D01*
X166796815Y-116413185D01*
X166893506Y-116492537D01*
X167003820Y-116551502D01*
X167123518Y-116587812D01*
X167248000Y-116600072D01*
X167862250Y-116597000D01*
X168021000Y-116438250D01*
X168021000Y-115189000D01*
X168275000Y-115189000D01*
X168275000Y-116438250D01*
X168433750Y-116597000D01*
X169048000Y-116600072D01*
X169172482Y-116587812D01*
X169292180Y-116551502D01*
X169402494Y-116492537D01*
X169499185Y-116413185D01*
X169578537Y-116316494D01*
X169637502Y-116206180D01*
X169673812Y-116086482D01*
X169686072Y-115962000D01*
X169683000Y-115347750D01*
X169524250Y-115189000D01*
X168275000Y-115189000D01*
X168021000Y-115189000D01*
X168001000Y-115189000D01*
X168001000Y-114935000D01*
X168021000Y-114935000D01*
X168021000Y-113685750D01*
X168275000Y-113685750D01*
X168275000Y-114935000D01*
X169524250Y-114935000D01*
X169683000Y-114776250D01*
X169686072Y-114162000D01*
X169673812Y-114037518D01*
X169637502Y-113917820D01*
X169578537Y-113807506D01*
X169499185Y-113710815D01*
X169402494Y-113631463D01*
X169292180Y-113572498D01*
X169172482Y-113536188D01*
X169048000Y-113523928D01*
X168433750Y-113527000D01*
X168275000Y-113685750D01*
X168021000Y-113685750D01*
X167862250Y-113527000D01*
X167248000Y-113523928D01*
X167123518Y-113536188D01*
X167003820Y-113572498D01*
X166893506Y-113631463D01*
X166796815Y-113710815D01*
X166717463Y-113807506D01*
X166658498Y-113917820D01*
X166652944Y-113936127D01*
X166586505Y-113869688D01*
X166335095Y-113701701D01*
X166055743Y-113585989D01*
X165759184Y-113527000D01*
X165456816Y-113527000D01*
X165160257Y-113585989D01*
X164880905Y-113701701D01*
X164629495Y-113869688D01*
X164415688Y-114083495D01*
X164247701Y-114334905D01*
X164131989Y-114614257D01*
X164073000Y-114910816D01*
X159505749Y-114910816D01*
X159403679Y-114664397D01*
X159246636Y-114429365D01*
X159046758Y-114229487D01*
X158811726Y-114072444D01*
X158550573Y-113964271D01*
X158273334Y-113909124D01*
X157990664Y-113909124D01*
X157713425Y-113964271D01*
X157452272Y-114072444D01*
X157217240Y-114229487D01*
X157017362Y-114429365D01*
X156860319Y-114664397D01*
X156752146Y-114925550D01*
X156696999Y-115202789D01*
X156513770Y-115202789D01*
X154899022Y-105141665D01*
X155283000Y-105141665D01*
X155283000Y-105424335D01*
X155338147Y-105701574D01*
X155446320Y-105962727D01*
X155603363Y-106197759D01*
X155803241Y-106397637D01*
X156038273Y-106554680D01*
X156299426Y-106662853D01*
X156576665Y-106718000D01*
X156859335Y-106718000D01*
X157136574Y-106662853D01*
X157397727Y-106554680D01*
X157632759Y-106397637D01*
X157832637Y-106197759D01*
X157989680Y-105962727D01*
X158097853Y-105701574D01*
X158153000Y-105424335D01*
X158153000Y-105141665D01*
X158147406Y-105113541D01*
X176000999Y-105113541D01*
X176000999Y-105396211D01*
X176056146Y-105673450D01*
X176164319Y-105934603D01*
X176321362Y-106169635D01*
X176521240Y-106369513D01*
X176756272Y-106526556D01*
X177017425Y-106634729D01*
X177294664Y-106689876D01*
X177577334Y-106689876D01*
X177854573Y-106634729D01*
X178115726Y-106526556D01*
X178350758Y-106369513D01*
X178550636Y-106169635D01*
X178707679Y-105934603D01*
X178815852Y-105673450D01*
X178870999Y-105396211D01*
X178870999Y-105113541D01*
X178815852Y-104836302D01*
X178707679Y-104575149D01*
X178550636Y-104340117D01*
X178350758Y-104140239D01*
X178115726Y-103983196D01*
X177854573Y-103875023D01*
X177577334Y-103819876D01*
X177294664Y-103819876D01*
X177017425Y-103875023D01*
X176756272Y-103983196D01*
X176521240Y-104140239D01*
X176321362Y-104340117D01*
X176164319Y-104575149D01*
X176056146Y-104836302D01*
X176000999Y-105113541D01*
X158147406Y-105113541D01*
X158097853Y-104864426D01*
X157989680Y-104603273D01*
X157832637Y-104368241D01*
X157632759Y-104168363D01*
X157397727Y-104011320D01*
X157136574Y-103903147D01*
X156859335Y-103848000D01*
X156576665Y-103848000D01*
X156299426Y-103903147D01*
X156038273Y-104011320D01*
X155803241Y-104168363D01*
X155603363Y-104368241D01*
X155446320Y-104603273D01*
X155338147Y-104864426D01*
X155283000Y-105141665D01*
X154899022Y-105141665D01*
X153813263Y-98376547D01*
X154306874Y-98376547D01*
X154410512Y-98981998D01*
X154444202Y-99102460D01*
X154500746Y-99214035D01*
X154577971Y-99312434D01*
X154672907Y-99393876D01*
X154781909Y-99455233D01*
X154900786Y-99494146D01*
X154920762Y-99496555D01*
X154849701Y-99602905D01*
X154733989Y-99882257D01*
X154675000Y-100178816D01*
X154675000Y-100481184D01*
X154733989Y-100777743D01*
X154849701Y-101057095D01*
X155017688Y-101308505D01*
X155231495Y-101522312D01*
X155482905Y-101690299D01*
X155762257Y-101806011D01*
X156058816Y-101865000D01*
X156361184Y-101865000D01*
X156657743Y-101806011D01*
X156937095Y-101690299D01*
X157188505Y-101522312D01*
X157402312Y-101308505D01*
X157570299Y-101057095D01*
X157686011Y-100777743D01*
X157745000Y-100481184D01*
X157745000Y-100178816D01*
X157686011Y-99882257D01*
X157570299Y-99602905D01*
X157402312Y-99351495D01*
X157223482Y-99172665D01*
X160871000Y-99172665D01*
X160871000Y-99455335D01*
X160926147Y-99732574D01*
X161034320Y-99993727D01*
X161191363Y-100228759D01*
X161391241Y-100428637D01*
X161626273Y-100585680D01*
X161887426Y-100693853D01*
X162164665Y-100749000D01*
X162447335Y-100749000D01*
X162724574Y-100693853D01*
X162985727Y-100585680D01*
X163220759Y-100428637D01*
X163420637Y-100228759D01*
X163577680Y-99993727D01*
X163685853Y-99732574D01*
X163741000Y-99455335D01*
X163741000Y-99172665D01*
X171031000Y-99172665D01*
X171031000Y-99455335D01*
X171086147Y-99732574D01*
X171194320Y-99993727D01*
X171351363Y-100228759D01*
X171551241Y-100428637D01*
X171786273Y-100585680D01*
X172047426Y-100693853D01*
X172324665Y-100749000D01*
X172607335Y-100749000D01*
X172884574Y-100693853D01*
X173145727Y-100585680D01*
X173380759Y-100428637D01*
X173415168Y-100394228D01*
X176204934Y-100394228D01*
X176204934Y-100696596D01*
X176263923Y-100993155D01*
X176379635Y-101272507D01*
X176547622Y-101523917D01*
X176761429Y-101737724D01*
X177012839Y-101905711D01*
X177292191Y-102021423D01*
X177588750Y-102080412D01*
X177891118Y-102080412D01*
X178187677Y-102021423D01*
X178467029Y-101905711D01*
X178718439Y-101737724D01*
X178932246Y-101523917D01*
X179100233Y-101272507D01*
X179215945Y-100993155D01*
X179274934Y-100696596D01*
X179274934Y-100394228D01*
X179215945Y-100097669D01*
X179100233Y-99818317D01*
X179029172Y-99711967D01*
X179049148Y-99709558D01*
X179168025Y-99670645D01*
X179277027Y-99609288D01*
X179371963Y-99527846D01*
X179449188Y-99429447D01*
X179505732Y-99317872D01*
X179539422Y-99197410D01*
X179643060Y-98591959D01*
X179514288Y-98408054D01*
X178284017Y-98191124D01*
X178280544Y-98210820D01*
X178030403Y-98166713D01*
X178033876Y-98147017D01*
X176865400Y-97940983D01*
X178328124Y-97940983D01*
X179558395Y-98157913D01*
X179742300Y-98029141D01*
X179851989Y-97424756D01*
X179861531Y-97300037D01*
X179846558Y-97175852D01*
X179807645Y-97056975D01*
X179746288Y-96947973D01*
X179664846Y-96853037D01*
X179566447Y-96775812D01*
X179454872Y-96719268D01*
X179334410Y-96685578D01*
X178728959Y-96581940D01*
X178545054Y-96710712D01*
X178328124Y-97940983D01*
X176865400Y-97940983D01*
X176803605Y-97930087D01*
X176619700Y-98058859D01*
X176510011Y-98663244D01*
X176500469Y-98787963D01*
X176515442Y-98912148D01*
X176554355Y-99031025D01*
X176615712Y-99140027D01*
X176697154Y-99234963D01*
X176795553Y-99312188D01*
X176810967Y-99320000D01*
X176761429Y-99353100D01*
X176547622Y-99566907D01*
X176379635Y-99818317D01*
X176263923Y-100097669D01*
X176204934Y-100394228D01*
X173415168Y-100394228D01*
X173580637Y-100228759D01*
X173737680Y-99993727D01*
X173845853Y-99732574D01*
X173901000Y-99455335D01*
X173901000Y-99172665D01*
X173845853Y-98895426D01*
X173737680Y-98634273D01*
X173580637Y-98399241D01*
X173380759Y-98199363D01*
X173145727Y-98042320D01*
X172884574Y-97934147D01*
X172607335Y-97879000D01*
X172324665Y-97879000D01*
X172047426Y-97934147D01*
X171786273Y-98042320D01*
X171551241Y-98199363D01*
X171351363Y-98399241D01*
X171194320Y-98634273D01*
X171086147Y-98895426D01*
X171031000Y-99172665D01*
X163741000Y-99172665D01*
X163685853Y-98895426D01*
X163577680Y-98634273D01*
X163420637Y-98399241D01*
X163220759Y-98199363D01*
X162985727Y-98042320D01*
X162724574Y-97934147D01*
X162447335Y-97879000D01*
X162164665Y-97879000D01*
X161887426Y-97934147D01*
X161626273Y-98042320D01*
X161391241Y-98199363D01*
X161191363Y-98399241D01*
X161034320Y-98634273D01*
X160926147Y-98895426D01*
X160871000Y-99172665D01*
X157223482Y-99172665D01*
X157188505Y-99137688D01*
X157138967Y-99104588D01*
X157154381Y-99096776D01*
X157252780Y-99019551D01*
X157334222Y-98924615D01*
X157395579Y-98815613D01*
X157434492Y-98696736D01*
X157449465Y-98572551D01*
X157439923Y-98447832D01*
X157330234Y-97843447D01*
X157146329Y-97714675D01*
X155916058Y-97931605D01*
X155919531Y-97951301D01*
X155669390Y-97995408D01*
X155665917Y-97975712D01*
X154435646Y-98192642D01*
X154306874Y-98376547D01*
X153813263Y-98376547D01*
X153605917Y-97084625D01*
X154088403Y-97084625D01*
X154097945Y-97209344D01*
X154207634Y-97813729D01*
X154391539Y-97942501D01*
X155621810Y-97725571D01*
X155404880Y-96495300D01*
X155341889Y-96451193D01*
X155655021Y-96451193D01*
X155871951Y-97681464D01*
X156923536Y-97496041D01*
X176718940Y-97496041D01*
X176847712Y-97679946D01*
X178077983Y-97896876D01*
X178294913Y-96666605D01*
X178166141Y-96482700D01*
X177561756Y-96373011D01*
X177437037Y-96363469D01*
X177312852Y-96378442D01*
X177193975Y-96417355D01*
X177084973Y-96478712D01*
X176990037Y-96560154D01*
X176912812Y-96658553D01*
X176856268Y-96770128D01*
X176822578Y-96890590D01*
X176718940Y-97496041D01*
X156923536Y-97496041D01*
X157102222Y-97464534D01*
X157230994Y-97280629D01*
X157127356Y-96675178D01*
X157093666Y-96554716D01*
X157037122Y-96443141D01*
X156959897Y-96344742D01*
X156864961Y-96263300D01*
X156755959Y-96201943D01*
X156637082Y-96163030D01*
X156512897Y-96148057D01*
X156388178Y-96157599D01*
X155783793Y-96267288D01*
X155655021Y-96451193D01*
X155341889Y-96451193D01*
X155220975Y-96366528D01*
X154615524Y-96470166D01*
X154495062Y-96503856D01*
X154383487Y-96560400D01*
X154285088Y-96637625D01*
X154203646Y-96732561D01*
X154142289Y-96841563D01*
X154103376Y-96960440D01*
X154088403Y-97084625D01*
X153605917Y-97084625D01*
X151688548Y-85137944D01*
X151866241Y-85315637D01*
X152101273Y-85472680D01*
X152362426Y-85580853D01*
X152639665Y-85636000D01*
X152922335Y-85636000D01*
X153199574Y-85580853D01*
X153460727Y-85472680D01*
X153695759Y-85315637D01*
X153895637Y-85115759D01*
X154052680Y-84880727D01*
X154160853Y-84619574D01*
X154216000Y-84342335D01*
X154216000Y-84059665D01*
X154160853Y-83782426D01*
X154052680Y-83521273D01*
X153895637Y-83286241D01*
X153695759Y-83086363D01*
X153460727Y-82929320D01*
X153199574Y-82821147D01*
X152922335Y-82766000D01*
X152639665Y-82766000D01*
X152362426Y-82821147D01*
X152101273Y-82929320D01*
X151866241Y-83086363D01*
X151666363Y-83286241D01*
X151509320Y-83521273D01*
X151451489Y-83660888D01*
X150073641Y-75075835D01*
X150076989Y-75080845D01*
X150276867Y-75280723D01*
X150511899Y-75437766D01*
X150773052Y-75545939D01*
X151050291Y-75601086D01*
X151332961Y-75601086D01*
X151610200Y-75545939D01*
X151871353Y-75437766D01*
X152106385Y-75280723D01*
X152306263Y-75080845D01*
X152463306Y-74845813D01*
X152571479Y-74584660D01*
X152626626Y-74307421D01*
X152626626Y-74024751D01*
X152571479Y-73747512D01*
X152463306Y-73486359D01*
X152306263Y-73251327D01*
X152106385Y-73051449D01*
X151871353Y-72894406D01*
X151610200Y-72786233D01*
X151332961Y-72731086D01*
X151050291Y-72731086D01*
X150773052Y-72786233D01*
X150511899Y-72894406D01*
X150276867Y-73051449D01*
X150076989Y-73251327D01*
X149919946Y-73486359D01*
X149846859Y-73662807D01*
X149447205Y-71172652D01*
X149556688Y-71336505D01*
X149770495Y-71550312D01*
X150021905Y-71718299D01*
X150301257Y-71834011D01*
X150597816Y-71893000D01*
X150900184Y-71893000D01*
X151196743Y-71834011D01*
X151476095Y-71718299D01*
X151727505Y-71550312D01*
X151941312Y-71336505D01*
X152109299Y-71085095D01*
X152225011Y-70805743D01*
X152284000Y-70509184D01*
X152284000Y-70206816D01*
X152225011Y-69910257D01*
X152109299Y-69630905D01*
X151941312Y-69379495D01*
X151874873Y-69313056D01*
X151893180Y-69307502D01*
X152003494Y-69248537D01*
X152100185Y-69169185D01*
X152179537Y-69072494D01*
X152238502Y-68962180D01*
X152274812Y-68842482D01*
X152287072Y-68718000D01*
X152285675Y-68438665D01*
X161125000Y-68438665D01*
X161125000Y-68721335D01*
X161180147Y-68998574D01*
X161288320Y-69259727D01*
X161445363Y-69494759D01*
X161645241Y-69694637D01*
X161880273Y-69851680D01*
X162141426Y-69959853D01*
X162418665Y-70015000D01*
X162701335Y-70015000D01*
X162978574Y-69959853D01*
X163239727Y-69851680D01*
X163474759Y-69694637D01*
X163674637Y-69494759D01*
X163831680Y-69259727D01*
X163939853Y-68998574D01*
X163995000Y-68721335D01*
X163995000Y-68438665D01*
X163939853Y-68161426D01*
X163831680Y-67900273D01*
X163674637Y-67665241D01*
X163474759Y-67465363D01*
X163239727Y-67308320D01*
X162978574Y-67200147D01*
X162701335Y-67145000D01*
X162418665Y-67145000D01*
X162141426Y-67200147D01*
X161880273Y-67308320D01*
X161645241Y-67465363D01*
X161445363Y-67665241D01*
X161288320Y-67900273D01*
X161180147Y-68161426D01*
X161125000Y-68438665D01*
X152285675Y-68438665D01*
X152284000Y-68103750D01*
X152125250Y-67945000D01*
X150876000Y-67945000D01*
X150876000Y-67965000D01*
X150622000Y-67965000D01*
X150622000Y-67945000D01*
X149372750Y-67945000D01*
X149214000Y-68103750D01*
X149210928Y-68718000D01*
X149223188Y-68842482D01*
X149259498Y-68962180D01*
X149318463Y-69072494D01*
X149397815Y-69169185D01*
X149494506Y-69248537D01*
X149604820Y-69307502D01*
X149623127Y-69313056D01*
X149556688Y-69379495D01*
X149388701Y-69630905D01*
X149272989Y-69910257D01*
X149257276Y-69989251D01*
X148764360Y-66918000D01*
X149210928Y-66918000D01*
X149214000Y-67532250D01*
X149372750Y-67691000D01*
X150622000Y-67691000D01*
X150622000Y-66441750D01*
X150876000Y-66441750D01*
X150876000Y-67691000D01*
X152125250Y-67691000D01*
X152284000Y-67532250D01*
X152287072Y-66918000D01*
X152274812Y-66793518D01*
X152238502Y-66673820D01*
X152179537Y-66563506D01*
X152100185Y-66466815D01*
X152003494Y-66387463D01*
X151893180Y-66328498D01*
X151773482Y-66292188D01*
X151649000Y-66279928D01*
X151034750Y-66283000D01*
X150876000Y-66441750D01*
X150622000Y-66441750D01*
X150463250Y-66283000D01*
X149849000Y-66279928D01*
X149724518Y-66292188D01*
X149604820Y-66328498D01*
X149494506Y-66387463D01*
X149397815Y-66466815D01*
X149318463Y-66563506D01*
X149259498Y-66673820D01*
X149223188Y-66793518D01*
X149210928Y-66918000D01*
X148764360Y-66918000D01*
X148640323Y-66145157D01*
X152192569Y-59040665D01*
X152489000Y-59040665D01*
X152489000Y-59323335D01*
X152544147Y-59600574D01*
X152652320Y-59861727D01*
X152809363Y-60096759D01*
X153009241Y-60296637D01*
X153244273Y-60453680D01*
X153505426Y-60561853D01*
X153782665Y-60617000D01*
X154065335Y-60617000D01*
X154342574Y-60561853D01*
X154603727Y-60453680D01*
X154838759Y-60296637D01*
X155038637Y-60096759D01*
X155195680Y-59861727D01*
X155303853Y-59600574D01*
X155359000Y-59323335D01*
X155359000Y-59040665D01*
X155303853Y-58763426D01*
X155195680Y-58502273D01*
X155038637Y-58267241D01*
X154838759Y-58067363D01*
X154603727Y-57910320D01*
X154342574Y-57802147D01*
X154065335Y-57747000D01*
X153782665Y-57747000D01*
X153505426Y-57802147D01*
X153244273Y-57910320D01*
X153009241Y-58067363D01*
X152809363Y-58267241D01*
X152652320Y-58502273D01*
X152544147Y-58763426D01*
X152489000Y-59040665D01*
X152192569Y-59040665D01*
X156677943Y-50069917D01*
X157258831Y-50069917D01*
X157258831Y-50352587D01*
X157313978Y-50629826D01*
X157422151Y-50890979D01*
X157579194Y-51126011D01*
X157779072Y-51325889D01*
X158014104Y-51482932D01*
X158275257Y-51591105D01*
X158552496Y-51646252D01*
X158835166Y-51646252D01*
X159112405Y-51591105D01*
X159373558Y-51482932D01*
X159608590Y-51325889D01*
X159808468Y-51126011D01*
X159965511Y-50890979D01*
X160073684Y-50629826D01*
X160128831Y-50352587D01*
X160128831Y-50069917D01*
X160073684Y-49792678D01*
X159965511Y-49531525D01*
X159808468Y-49296493D01*
X159636791Y-49124816D01*
X164073000Y-49124816D01*
X164073000Y-49427184D01*
X164131989Y-49723743D01*
X164247701Y-50003095D01*
X164415688Y-50254505D01*
X164629495Y-50468312D01*
X164880905Y-50636299D01*
X165160257Y-50752011D01*
X165456816Y-50811000D01*
X165759184Y-50811000D01*
X166055743Y-50752011D01*
X166335095Y-50636299D01*
X166586505Y-50468312D01*
X166652944Y-50401873D01*
X166658498Y-50420180D01*
X166717463Y-50530494D01*
X166796815Y-50627185D01*
X166893506Y-50706537D01*
X167003820Y-50765502D01*
X167123518Y-50801812D01*
X167248000Y-50814072D01*
X167862250Y-50811000D01*
X168021000Y-50652250D01*
X168021000Y-49403000D01*
X168275000Y-49403000D01*
X168275000Y-50652250D01*
X168433750Y-50811000D01*
X169048000Y-50814072D01*
X169172482Y-50801812D01*
X169292180Y-50765502D01*
X169402494Y-50706537D01*
X169499185Y-50627185D01*
X169578537Y-50530494D01*
X169637502Y-50420180D01*
X169673812Y-50300482D01*
X169686072Y-50176000D01*
X169683000Y-49561750D01*
X169524250Y-49403000D01*
X168275000Y-49403000D01*
X168021000Y-49403000D01*
X168001000Y-49403000D01*
X168001000Y-49149000D01*
X168021000Y-49149000D01*
X168021000Y-47899750D01*
X168275000Y-47899750D01*
X168275000Y-49149000D01*
X169524250Y-49149000D01*
X169683000Y-48990250D01*
X169686072Y-48376000D01*
X169673812Y-48251518D01*
X169637502Y-48131820D01*
X169578537Y-48021506D01*
X169499185Y-47924815D01*
X169402494Y-47845463D01*
X169292180Y-47786498D01*
X169172482Y-47750188D01*
X169048000Y-47737928D01*
X168433750Y-47741000D01*
X168275000Y-47899750D01*
X168021000Y-47899750D01*
X167862250Y-47741000D01*
X167248000Y-47737928D01*
X167123518Y-47750188D01*
X167003820Y-47786498D01*
X166893506Y-47845463D01*
X166796815Y-47924815D01*
X166717463Y-48021506D01*
X166658498Y-48131820D01*
X166652944Y-48150127D01*
X166586505Y-48083688D01*
X166335095Y-47915701D01*
X166055743Y-47799989D01*
X165759184Y-47741000D01*
X165456816Y-47741000D01*
X165160257Y-47799989D01*
X164880905Y-47915701D01*
X164629495Y-48083688D01*
X164415688Y-48297495D01*
X164247701Y-48548905D01*
X164131989Y-48828257D01*
X164073000Y-49124816D01*
X159636791Y-49124816D01*
X159608590Y-49096615D01*
X159373558Y-48939572D01*
X159112405Y-48831399D01*
X158835166Y-48776252D01*
X158552496Y-48776252D01*
X158275257Y-48831399D01*
X158014104Y-48939572D01*
X157779072Y-49096615D01*
X157579194Y-49296493D01*
X157422151Y-49531525D01*
X157313978Y-49792678D01*
X157258831Y-50069917D01*
X156677943Y-50069917D01*
X157887902Y-47650000D01*
X176122098Y-47650000D01*
X177398093Y-50201989D01*
G37*
%TD.AperFunction*%
%TD*%
M02*
