%TF.GenerationSoftware,KiCad,Pcbnew,(5.1.8)-1*%
%TF.CreationDate,2021-10-08T14:09:10-07:00*%
%TF.ProjectId,Halloween,48616c6c-6f77-4656-956e-2e6b69636164,rev?*%
%TF.SameCoordinates,Original*%
%TF.FileFunction,Soldermask,Top*%
%TF.FilePolarity,Negative*%
%FSLAX46Y46*%
G04 Gerber Fmt 4.6, Leading zero omitted, Abs format (unit mm)*
G04 Created by KiCad (PCBNEW (5.1.8)-1) date 2021-10-08 14:09:10*
%MOMM*%
%LPD*%
G01*
G04 APERTURE LIST*
%ADD10O,1.600000X1.600000*%
%ADD11C,1.600000*%
%ADD12O,4.000000X2.500000*%
%ADD13C,0.100000*%
%ADD14R,1.800000X1.800000*%
%ADD15C,1.800000*%
G04 APERTURE END LIST*
D10*
%TO.C,R6*%
X172720000Y-68580000D03*
D11*
X162560000Y-68580000D03*
%TD*%
%TO.C,R5*%
G36*
G01*
X158318254Y-50917610D02*
X158318254Y-50917610D01*
G75*
G02*
X157987473Y-49835675I375577J706358D01*
G01*
X157987473Y-49835675D01*
G75*
G02*
X159069408Y-49504894I706358J-375577D01*
G01*
X159069408Y-49504894D01*
G75*
G02*
X159400189Y-50586829I-375577J-706358D01*
G01*
X159400189Y-50586829D01*
G75*
G02*
X158318254Y-50917610I-706358J375577D01*
G01*
G37*
X153924000Y-59182000D03*
%TD*%
%TO.C,R4*%
G36*
G01*
X151316774Y-74956237D02*
X151316774Y-74956237D01*
G75*
G02*
X150401475Y-74291234I-125148J790151D01*
G01*
X150401475Y-74291234D01*
G75*
G02*
X151066478Y-73375935I790151J125148D01*
G01*
X151066478Y-73375935D01*
G75*
G02*
X151981777Y-74040938I125148J-790151D01*
G01*
X151981777Y-74040938D01*
G75*
G02*
X151316774Y-74956237I-790151J-125148D01*
G01*
G37*
X152781000Y-84201000D03*
%TD*%
%TO.C,R3*%
G36*
G01*
X177324661Y-106047090D02*
X177324661Y-106047090D01*
G75*
G02*
X176643785Y-105143538I111338J792214D01*
G01*
X176643785Y-105143538D01*
G75*
G02*
X177547337Y-104462662I792214J-111338D01*
G01*
X177547337Y-104462662D01*
G75*
G02*
X178228213Y-105366214I-111338J-792214D01*
G01*
X178228213Y-105366214D01*
G75*
G02*
X177324661Y-106047090I-792214J111338D01*
G01*
G37*
X176022000Y-115316000D03*
%TD*%
%TO.C,R2*%
G36*
G01*
X158020661Y-114551910D02*
X158020661Y-114551910D01*
G75*
G02*
X158924213Y-115232786I111338J-792214D01*
G01*
X158924213Y-115232786D01*
G75*
G02*
X158243337Y-116136338I-792214J-111338D01*
G01*
X158243337Y-116136338D01*
G75*
G02*
X157339785Y-115455462I-111338J792214D01*
G01*
X157339785Y-115455462D01*
G75*
G02*
X158020661Y-114551910I792214J111338D01*
G01*
G37*
X156718000Y-105283000D03*
%TD*%
D10*
%TO.C,R1*%
X162306000Y-99314000D03*
D11*
X172466000Y-99314000D03*
%TD*%
D12*
%TO.C,BT1*%
X167640000Y-73533000D03*
X167640000Y-94615000D03*
%TD*%
D13*
%TO.C,SW1*%
G36*
X175502148Y-53836334D02*
G01*
X177729664Y-52701358D01*
X178319852Y-53859666D01*
X176092336Y-54994642D01*
X175502148Y-53836334D01*
G37*
G36*
G01*
X176989283Y-55323253D02*
X178058491Y-54778465D01*
G75*
G02*
X178932739Y-55062525I295094J-579154D01*
G01*
X178932739Y-55062525D01*
G75*
G02*
X178648679Y-55936773I-579154J-295094D01*
G01*
X177579471Y-56481561D01*
G75*
G02*
X176705223Y-56197501I-295094J579154D01*
G01*
X176705223Y-56197501D01*
G75*
G02*
X176989283Y-55323253I579154J295094D01*
G01*
G37*
G36*
G01*
X177897264Y-57105266D02*
X178966472Y-56560478D01*
G75*
G02*
X179840720Y-56844538I295094J-579154D01*
G01*
X179840720Y-56844538D01*
G75*
G02*
X179556660Y-57718786I-579154J-295094D01*
G01*
X178487452Y-58263574D01*
G75*
G02*
X177613204Y-57979514I-295094J579154D01*
G01*
X177613204Y-57979514D01*
G75*
G02*
X177897264Y-57105266I579154J295094D01*
G01*
G37*
G36*
G01*
X174813524Y-51493622D02*
X176239134Y-50767238D01*
G75*
G02*
X177516881Y-51182403I431291J-846456D01*
G01*
X177516881Y-51182403D01*
G75*
G02*
X177101716Y-52460150I-846456J-431291D01*
G01*
X175676106Y-53186534D01*
G75*
G02*
X174398359Y-52771369I-431291J846456D01*
G01*
X174398359Y-52771369D01*
G75*
G02*
X174813524Y-51493622I846456J431291D01*
G01*
G37*
G36*
G01*
X178536246Y-58799876D02*
X179961856Y-58073492D01*
G75*
G02*
X181239603Y-58488657I431291J-846456D01*
G01*
X181239603Y-58488657D01*
G75*
G02*
X180824438Y-59766404I-846456J-431291D01*
G01*
X179398828Y-60492788D01*
G75*
G02*
X178121081Y-60077623I-431291J846456D01*
G01*
X178121081Y-60077623D01*
G75*
G02*
X178536246Y-58799876I846456J431291D01*
G01*
G37*
%TD*%
D14*
%TO.C,D6*%
X183261000Y-67818000D03*
D15*
X183261000Y-70358000D03*
%TD*%
D14*
%TO.C,D5*%
X168148000Y-49276000D03*
D15*
X165608000Y-49276000D03*
%TD*%
D14*
%TO.C,D4*%
X150749000Y-67818000D03*
D15*
X150749000Y-70358000D03*
%TD*%
D13*
%TO.C,D3*%
G36*
X177450956Y-97001390D02*
G01*
X179223610Y-97313956D01*
X178911044Y-99086610D01*
X177138390Y-98774044D01*
X177450956Y-97001390D01*
G37*
D15*
X177739934Y-100545412D03*
%TD*%
D14*
%TO.C,D2*%
X168148000Y-115062000D03*
D15*
X165608000Y-115062000D03*
%TD*%
D13*
%TO.C,D1*%
G36*
X154726324Y-97098544D02*
G01*
X156498978Y-96785978D01*
X156811544Y-98558632D01*
X155038890Y-98871198D01*
X154726324Y-97098544D01*
G37*
D15*
X156210000Y-100330000D03*
%TD*%
M02*
